<svg width="384" height="384" viewBox="0 0 384 384" fill="none" xmlns="http://www.w3.org/2000/svg">
<path d="M352 192V352C352 360.801 344.801 368 336 368H48C39.1992 368 32 360.801 32 352V192H352ZM248 280C248 263.84 222.961 248 192 248C161.039 248 136 263.84 136 280C136 296.16 161.039 312 192 312C222.961 312 248 296.16 248 280Z" fill="#2682FF"/>
<path d="M352 157.441V192H32V157.441C32 148.559 33.3594 139.68 36 131.199L64.9609 38.4805C69.1211 25.1211 81.5195 16 95.5195 16H288.48C302.48 16 314.879 25.1211 319.039 38.4805L348 131.199C350.641 139.68 352 148.559 352 157.441V157.441ZM256 120V88C256 79.1992 248.801 72 240 72H144C135.199 72 128 79.1992 128 88V120C128 128.801 135.199 136 144 136H240C248.801 136 256 128.801 256 120Z" fill="#6AA9FF"/>
<path d="M192 248C222.961 248 248 263.84 248 280C248 296.16 222.961 312 192 312C161.039 312 136 296.16 136 280C136 263.84 161.039 248 192 248Z" fill="#E0F7FA"/>
<path d="M334.32 33.7188C328.031 13.543 309.617 0 288.48 0H95.5195C74.3828 0 55.9688 13.543 49.6875 33.7031L20.7188 126.449C17.5938 136.504 16 146.938 16 157.441V352C16 369.648 30.3516 384 48 384H336C353.648 384 368 369.648 368 352V157.441C368 146.938 366.406 136.512 363.273 126.434L334.32 33.7188ZM51.2734 135.977L80.2383 43.2305C82.3281 36.5117 88.4727 32 95.5195 32H288.48C295.527 32 301.672 36.5117 303.77 43.2461L332.727 135.961C334.895 142.937 336 150.168 336 157.441V176H48V157.441C48 150.168 49.1055 142.938 51.2734 135.977V135.977ZM48 352V208H336V352H48Z" fill="#012E52"/>
<path d="M144 152H240C257.648 152 272 137.648 272 120V88C272 70.3516 257.648 56 240 56H144C126.352 56 112 70.3516 112 88V120C112 137.648 126.352 152 144 152ZM144.047 88H240V120H144L144.047 88ZM144 72V88V72Z" fill="#012E52"/>
<path d="M192 232C152.305 232 120 253.527 120 280C120 306.473 152.305 328 192 328C231.695 328 264 306.473 264 280C264 253.527 231.695 232 192 232ZM192 296C167.016 296 152.344 284 152 280C152.344 276 167.016 264 192 264C217.016 264 231.688 276.031 232 279.984C231.688 283.969 217.016 296 192 296Z" fill="#012E52"/>
</svg>
