<svg width="512" height="512" viewBox="0 0 512 512" fill="none" xmlns="http://www.w3.org/2000/svg">
<g clip-path="url(#clip0)">
<path d="M423.973 232.002H14.999V142.008C14.999 125.439 28.4282 112.01 44.9971 112.01H381.705C396.744 112.01 409.454 123.139 411.443 138.048C423.41 227.772 420.961 209.408 423.973 232.002Z" fill="#EBEBF9"/>
<path d="M423.973 232.002H239.984V112.01H381.705C396.744 112.01 409.454 123.139 411.443 138.048C423.41 227.772 420.961 209.408 423.973 232.002Z" fill="#D8D9F6"/>
<path d="M271.982 232.002H359.977V367.993H271.982V232.002Z" fill="#E69724"/>
<path d="M485.029 242.391L445.451 225.043C440.702 222.963 437.312 218.473 436.612 213.333C436.612 213.173 436.942 215.793 426.313 136.068C423.343 113.8 404.164 97.0107 381.705 97.0107H44.9971C20.1887 97.0107 0 117.199 0 142.008V271.999C0 271.999 12.9792 289.198 0 301.998V337.995C0 362.804 20.1887 382.992 44.9971 382.992H466.97C491.778 382.992 511.967 362.804 511.967 337.995V283.609C511.967 265.74 501.388 249.561 485.029 242.391ZM64.9958 217.003H29.9981V142.008C29.9981 133.738 36.7276 127.009 44.9971 127.009H64.9958V217.003ZM128.992 217.003H94.9939V127.009H128.992V217.003ZM192.988 217.003H158.99V127.009H192.988V217.003ZM256.983 217.003H222.986V127.009H256.983V217.003ZM344.978 352.994H286.982V247.001H344.978V352.994ZM344.978 217.003H286.982V127.009H344.978V217.003ZM374.976 217.003V127.009H381.705C389.195 127.009 395.585 132.608 396.574 140.028L406.844 217.003H374.976Z" fill="#6AA9FF"/>
<path d="M485.029 242.391L445.451 225.043C440.702 222.963 437.312 218.473 436.612 213.333C436.612 213.173 436.942 215.793 426.312 136.068C423.343 113.8 404.164 97.0107 381.705 97.0107H239.984V127.009H256.983V217.003H239.984V382.992H466.97C491.778 382.992 511.967 362.804 511.967 337.995V283.609C511.967 265.856 501.5 249.605 485.029 242.391ZM344.978 352.994H286.981V301.998H295.981C304.26 301.998 310.98 295.278 310.98 286.998C310.98 278.719 304.26 271.999 295.981 271.999H286.981V247.001H344.978V352.994ZM344.978 217.003H286.981V127.009H344.978V217.003ZM374.976 217.003V127.009H381.705C389.195 127.009 395.584 132.608 396.574 140.028L406.844 217.003H374.976Z" fill="#2682FF"/>
<path d="M207.987 301.998H111.993C103.709 301.998 96.9938 295.282 96.9938 286.999C96.9938 278.715 103.709 272 111.993 272H207.987C216.27 272 222.986 278.715 222.986 286.999C222.986 295.282 216.27 301.998 207.987 301.998Z" fill="#F0C92F"/>
<path d="M415.973 399.991C433.645 399.991 447.971 385.665 447.971 367.993C447.971 350.321 433.645 335.995 415.973 335.995C398.301 335.995 383.975 350.321 383.975 367.993C383.975 385.665 398.301 399.991 415.973 399.991Z" fill="#28485E"/>
<path d="M415.973 414.99C390.059 414.99 368.976 393.908 368.976 367.993C368.976 342.079 390.059 320.996 415.973 320.996C441.887 320.996 462.97 342.079 462.97 367.993C462.97 393.908 441.887 414.99 415.973 414.99ZM415.973 350.994C406.6 350.994 398.974 358.62 398.974 367.993C398.974 377.367 406.6 384.992 415.973 384.992C425.347 384.992 432.972 377.367 432.972 367.993C432.972 358.62 425.347 350.994 415.973 350.994Z" fill="#1B303E"/>
<path d="M103.993 399.991C121.665 399.991 135.991 385.665 135.991 367.993C135.991 350.321 121.665 335.995 103.993 335.995C86.3213 335.995 71.9954 350.321 71.9954 367.993C71.9954 385.665 86.3213 399.991 103.993 399.991Z" fill="#36607D"/>
<path d="M103.993 414.99C78.079 414.99 56.9963 393.908 56.9963 367.993C56.9963 342.079 78.079 320.996 103.993 320.996C129.908 320.996 150.99 342.079 150.99 367.993C150.99 393.908 129.908 414.99 103.993 414.99ZM103.993 350.994C94.6199 350.994 86.9944 358.62 86.9944 367.993C86.9944 377.367 94.6199 384.992 103.993 384.992C113.367 384.992 120.992 377.367 120.992 367.993C120.992 358.62 113.367 350.994 103.993 350.994Z" fill="#28485E"/>
<path d="M511.967 302.077H478.969C470.69 302.077 463.97 295.358 463.97 287.078C463.97 278.799 470.69 272.079 478.969 272.079H510.467C512.356 279.231 511.967 282.133 511.967 302.077Z" fill="#E69724"/>
<path d="M47.9969 286.999C47.9969 295.278 41.2773 301.998 32.9979 301.998H0V272H32.9979C41.2773 272 47.9969 278.719 47.9969 286.999Z" fill="#DF667A"/>
</g>
<defs>
<clipPath id="clip0">
<rect width="512" height="512" fill="white"/>
</clipPath>
</defs>
</svg>
