<svg width="512" height="376" viewBox="0 0 512 376" fill="none" xmlns="http://www.w3.org/2000/svg">
<path d="M451.72 169.26C434.298 160.55 401.633 160.449 400.251 160.449C396.109 160.449 392.751 163.807 392.751 167.949C392.751 172.091 396.109 175.449 400.251 175.449C408.68 175.45 433.153 176.748 445.012 182.677C446.089 183.216 447.233 183.47 448.36 183.47C451.111 183.47 453.76 181.95 455.074 179.323C456.927 175.618 455.425 171.113 451.72 169.26Z" fill="#54D38A"/>
<path d="M489.112 276.041L458.137 267.191C456.8 266.809 455.866 265.571 455.866 264.18V253.841C458.386 252.095 460.79 250.141 463.037 247.96C473.927 237.392 479.924 223.217 479.924 208.045V193.778L482.919 187.789C486.206 181.214 487.943 173.853 487.943 166.503V127.853C487.943 123.711 484.585 120.353 480.443 120.353H408.27C382.026 120.353 360.674 141.705 360.674 167.949V168.396C360.674 174.508 362.119 180.629 364.852 186.095L368.693 193.777V206.027C368.693 225.441 378.26 242.86 392.751 253.342L392.753 264.178C392.753 265.849 392.753 266.541 386.56 268.311L371.446 272.629L327.725 256.731C327.882 254.668 327.186 252.57 325.681 250.989L311.71 236.311V211.671C313.187 210.454 314.643 209.204 316.054 207.882C333.679 191.362 343.787 168.038 343.787 143.891V124.213C349.109 112.632 351.806 100.377 351.806 87.756V7.56601C351.806 3.42401 348.448 0.0660095 344.306 0.0660095H232.037C192.527 0.0660095 160.384 32.21 160.384 71.719V87.758C160.384 100.379 163.081 112.634 168.403 124.215V141.146C168.403 169.182 180.869 194.44 200.48 211.092V236.312L186.509 250.99C185.004 252.571 184.308 254.669 184.465 256.732L138.32 273.511C134.976 274.727 131.869 276.374 129.048 278.369L121.802 274.746C143.372 265.357 150.205 252.152 150.533 251.496C151.589 249.385 151.589 246.899 150.533 244.788C145.126 233.974 144.471 214.153 143.945 198.227C143.77 192.925 143.604 187.916 143.287 183.456C140.73 147.482 113.382 120.353 79.672 120.353C45.962 120.353 18.613 147.481 16.057 183.456C15.74 187.917 15.574 192.926 15.399 198.229C14.873 214.154 14.217 233.973 8.811 244.787C7.755 246.898 7.755 249.384 8.811 251.495C9.139 252.151 15.958 265.329 37.571 274.729L17.444 284.792C6.684 290.176 0 300.991 0 313.02V368.429C0 372.571 3.358 375.929 7.5 375.929C11.642 375.929 15 372.571 15 368.429V313.02C15 306.708 18.507 301.033 24.152 298.21L49.215 285.679L57.933 293.964C64.029 299.757 71.849 302.652 79.672 302.652C87.493 302.652 95.317 299.755 101.411 293.964L110.128 285.68L118.3 289.766C114.452 295.923 112.268 303.143 112.268 310.706V368.431C112.268 372.573 115.626 375.931 119.768 375.931C123.91 375.931 127.268 372.573 127.268 368.431V310.706C127.268 300.41 133.769 291.128 143.446 287.609L192.098 269.918L212.351 300.299C214.94 304.183 219.089 306.674 223.734 307.134C224.252 307.185 224.767 307.21 225.281 307.21C229.379 307.21 233.304 305.597 236.238 302.664L248.594 290.308V368.432C248.594 372.574 251.952 375.932 256.094 375.932C260.236 375.932 263.594 372.574 263.594 368.432V290.308L275.95 302.664C278.883 305.598 282.808 307.211 286.907 307.211C287.42 307.211 287.936 307.186 288.453 307.135C293.099 306.675 297.248 304.184 299.837 300.3L320.091 269.92L368.742 287.611C378.418 291.13 384.92 300.412 384.92 310.708V368.433C384.92 372.575 388.278 375.933 392.42 375.933C396.562 375.933 399.92 372.575 399.92 368.433V310.708C399.92 300.28 395.777 290.5 388.827 283.267L390.68 282.738C392.549 282.204 395.099 281.473 397.659 280.218L416.808 299.367V368.433C416.808 372.575 420.166 375.933 424.308 375.933C428.45 375.933 431.808 372.575 431.808 368.433V299.367L450.824 280.351C451.835 280.865 452.897 281.299 454.015 281.618L484.991 290.468C492.061 292.488 497 299.035 497 306.389V368.433C497 372.575 500.358 375.933 504.5 375.933C508.642 375.933 512 372.575 512 368.433V306.389C512 292.371 502.588 279.892 489.112 276.041ZM48.115 262.794C34.086 257.746 27.049 251.016 24.045 247.341C26.093 241.987 27.421 235.855 28.32 229.382C32.456 239.299 39.383 247.765 48.115 253.805V262.794ZM91.08 283.092C84.683 289.17 74.662 289.169 68.267 283.091L61.292 276.463C62.469 274.258 63.116 271.758 63.116 269.139V261.145C68.348 262.78 73.91 263.662 79.674 263.662C85.431 263.662 90.99 262.776 96.231 261.15L96.23 269.138C96.23 271.758 96.876 274.259 98.054 276.465L91.08 283.092ZM79.676 248.662C57.28 248.662 39.061 230.442 39.061 208.047C39.061 203.905 35.703 200.547 31.561 200.547C31.141 200.547 30.731 200.59 30.33 200.657C30.352 200.012 30.373 199.366 30.395 198.727C30.562 193.57 30.723 188.699 31.02 184.521C31.978 171.045 37.363 158.627 46.183 149.553C55.082 140.397 66.976 135.355 79.674 135.355C92.372 135.355 104.265 140.397 113.165 149.553C121.985 158.627 127.37 171.045 128.328 184.521C128.624 188.698 128.786 193.568 128.956 198.724C128.971 199.167 128.986 199.616 129.001 200.062C120.841 187.49 108.239 178.225 91.956 172.993C76.913 168.16 63.975 168.459 63.429 168.473C61.465 168.528 59.601 169.35 58.238 170.764L44.706 184.798C41.831 187.78 41.917 192.528 44.899 195.403C47.881 198.278 52.629 198.191 55.504 195.21L66.764 183.533C76.461 184.007 107.658 187.635 119.791 214.352C116.738 234.04 99.816 248.662 79.676 248.662ZM111.229 262.819L111.23 253.874C119.955 247.867 126.892 239.417 131.031 229.425C131.93 235.883 133.257 242.001 135.301 247.343C132.314 250.983 125.244 257.773 111.229 262.819ZM183.403 141.145V122.537C183.403 121.408 183.148 120.293 182.657 119.276C177.831 109.282 175.384 98.678 175.384 87.758V71.72C175.384 40.481 200.799 15.067 232.037 15.067H336.806V87.759C336.806 98.679 334.359 109.283 329.533 119.277C329.042 120.294 328.787 121.409 328.787 122.538V143.893C328.787 164.204 320.622 183.043 305.796 196.94C303.945 198.674 302.024 200.3 300.038 201.815C299.994 201.845 299.952 201.878 299.909 201.909C286.02 212.454 269.008 217.579 251.242 216.428C213.201 213.965 183.403 180.897 183.403 141.145ZM225.632 292.056C225.58 292.108 225.459 292.231 225.214 292.205C224.97 292.181 224.874 292.038 224.833 291.976L201.508 256.988L209.014 249.101L244.399 273.288L225.632 292.056ZM256.095 263.113L215.48 235.351V221.351C225.989 227.032 237.756 230.585 250.271 231.395C252.248 231.523 254.213 231.586 256.172 231.586C270.513 231.586 284.315 228.158 296.71 221.651V235.351L256.095 263.113ZM287.357 291.978C287.316 292.04 287.22 292.183 286.976 292.207C286.731 292.238 286.611 292.109 286.558 292.058L267.791 273.291L303.176 249.103L310.683 256.99L287.357 291.978ZM424.308 285.65L407.288 268.631C407.585 267.282 407.753 265.805 407.752 264.176L407.751 261.011C412.474 262.561 417.452 263.481 422.603 263.635C423.181 263.653 423.754 263.661 424.33 263.661C430.022 263.661 435.578 262.801 440.866 261.16V264.18C440.866 265.676 441.054 267.142 441.408 268.551L424.308 285.65ZM452.591 237.196C444.642 244.91 434.141 248.984 423.054 248.642C401.35 247.991 383.693 228.874 383.693 206.029V192.008C383.693 190.843 383.422 189.695 382.901 188.654L378.268 179.388C376.571 175.993 375.674 172.193 375.674 168.397V167.95C375.674 149.976 390.297 135.354 408.27 135.354H472.943V166.504C472.943 171.538 471.753 176.579 469.502 181.082L465.716 188.654C465.195 189.696 464.924 190.843 464.924 192.008V208.046C464.924 219.126 460.544 229.478 452.591 237.196Z" fill="#495057"/>
<path d="M472.423 312.814C468.281 312.814 464.923 316.172 464.923 320.314V368.429C464.923 372.571 468.281 375.929 472.423 375.929C476.565 375.929 479.923 372.571 479.923 368.429V320.314C479.923 316.173 476.565 312.814 472.423 312.814Z" fill="#54D38A"/>
<path d="M39.577 322.728C35.435 322.728 32.077 326.086 32.077 330.228V368.429C32.077 372.571 35.435 375.929 39.577 375.929C43.719 375.929 47.077 372.571 47.077 368.429V330.228C47.077 326.087 43.719 322.728 39.577 322.728Z" fill="#54D38A"/>
<path d="M317.532 90.475C289.166 62.109 229.817 67.532 205.615 71.18C197.992 72.329 192.46 78.78 192.46 86.519V103.797C192.46 107.939 195.818 111.297 199.96 111.297C204.102 111.297 207.46 107.939 207.46 103.797V86.518C207.46 86.263 207.628 86.045 207.852 86.011C217.519 84.554 236.702 82.306 256.577 83.631C279.965 85.188 296.905 91.059 306.926 101.081C309.855 104.01 314.604 104.01 317.532 101.081C320.461 98.152 320.461 93.403 317.532 90.475Z" fill="#54D38A"/>
<path d="M167.884 328.853C163.742 328.853 160.384 332.211 160.384 336.353V368.43C160.384 372.572 163.742 375.93 167.884 375.93C172.026 375.93 175.384 372.572 175.384 368.43V336.353C175.384 332.212 172.026 328.853 167.884 328.853Z" fill="#54D38A"/>
<path d="M344.306 328.853C340.164 328.853 336.806 332.211 336.806 336.353V368.43C336.806 372.572 340.164 375.93 344.306 375.93C348.448 375.93 351.806 372.572 351.806 368.43V336.353C351.806 332.212 348.448 328.853 344.306 328.853Z" fill="#54D38A"/>
</svg>
