<svg width="512" height="512" viewBox="0 0 512 512" fill="none" xmlns="http://www.w3.org/2000/svg">
<path d="M168.89 448H386.667C390.91 448 394.98 446.314 397.981 443.314C400.981 440.313 402.667 436.243 402.667 432V272C402.667 267.757 400.981 263.687 397.981 260.686C394.98 257.686 390.91 256 386.667 256H168.89C164.887 256 161.03 257.501 158.079 260.206L72.564 338.594C70.7054 340.298 69.2214 342.369 68.2062 344.677C67.1911 346.985 66.6669 349.479 66.667 352C66.6673 354.522 67.1919 357.015 68.2076 359.323C69.2233 361.631 70.7079 363.703 72.567 365.406L158.082 443.794C161.032 446.498 164.888 447.999 168.89 448Z" fill="#2682FF"/>
<path d="M168.89 448H354.667C358.91 448 362.98 446.314 365.981 443.314C368.981 440.313 370.667 436.243 370.667 432V272C370.667 267.757 368.981 263.687 365.981 260.686C362.98 257.686 358.91 256 354.667 256H168.89C164.887 256 161.03 257.501 158.079 260.206L72.564 338.594C70.7054 340.298 69.2214 342.369 68.2062 344.677C67.1911 346.985 66.6669 349.479 66.667 352C66.6673 354.522 67.1919 357.015 68.2076 359.323C69.2233 361.631 70.7079 363.703 72.567 365.406L158.082 443.794C161.032 446.498 164.888 447.999 168.89 448Z" fill="#6AA9FF"/>
<path d="M114.667 373.333C126.449 373.333 136 363.782 136 352C136 340.218 126.449 330.667 114.667 330.667C102.885 330.667 93.334 340.218 93.334 352C93.334 363.782 102.885 373.333 114.667 373.333Z" fill="#4B55A5"/>
<path d="M286.348 334.92C288.47 334.92 290.505 334.077 292.005 332.577C293.505 331.076 294.348 329.042 294.348 326.92V325.382C294.338 317.306 291.125 309.563 285.414 303.853C279.704 298.142 271.961 294.93 263.885 294.92H262.348V278.92C262.348 276.798 261.505 274.763 260.005 273.263C258.505 271.763 256.47 270.92 254.348 270.92C252.226 270.92 250.191 271.763 248.691 273.263C247.191 274.763 246.348 276.798 246.348 278.92V294.92H244.81C237.375 294.919 230.197 297.638 224.627 302.563C219.058 307.488 215.482 314.28 214.573 321.66C213.665 329.039 215.486 336.495 219.695 342.625C223.903 348.754 230.208 353.132 237.421 354.935L267.393 362.428C270.817 363.284 273.81 365.363 275.807 368.273C277.805 371.182 278.67 374.722 278.238 378.225C277.807 381.728 276.11 384.952 273.466 387.291C270.822 389.629 267.414 390.92 263.885 390.92H244.81C240.976 390.916 237.3 389.391 234.588 386.679C231.877 383.968 230.352 380.292 230.348 376.458V374.92C230.348 372.798 229.505 370.763 228.005 369.263C226.505 367.763 224.47 366.92 222.348 366.92C220.226 366.92 218.191 367.763 216.691 369.263C215.191 370.763 214.348 372.798 214.348 374.92V376.458C214.358 384.534 217.571 392.276 223.281 397.987C228.992 403.697 236.734 406.91 244.81 406.92H246.348V422.92C246.348 425.042 247.191 427.076 248.691 428.577C250.191 430.077 252.226 430.92 254.348 430.92C256.47 430.92 258.505 430.077 260.005 428.577C261.505 427.076 262.348 425.042 262.348 422.92V406.92H263.885C271.32 406.921 278.498 404.202 284.068 399.277C289.637 394.352 293.213 387.559 294.122 380.18C295.03 372.801 293.209 365.344 289 359.215C284.792 353.086 278.487 348.708 271.274 346.905L241.3 339.413C237.877 338.556 234.885 336.477 232.888 333.567C230.891 330.658 230.027 327.118 230.458 323.616C230.889 320.113 232.586 316.889 235.229 314.551C237.872 312.212 241.279 310.921 244.808 310.92H263.883C267.717 310.924 271.393 312.449 274.105 315.16C276.816 317.872 278.342 321.548 278.346 325.382V326.92C278.346 327.971 278.553 329.011 278.955 329.982C279.357 330.953 279.947 331.835 280.69 332.577C281.433 333.32 282.315 333.91 283.286 334.312C284.257 334.713 285.297 334.92 286.348 334.92V334.92Z" fill="#D7E6F0"/>
<path d="M114.667 360H80C65.1531 359.983 50.9191 354.078 40.4207 343.579C29.9224 333.081 24.0169 318.847 24 304V240C24.0169 225.153 29.9224 210.919 40.4207 200.421C50.9191 189.922 65.1531 184.017 80 184H112C114.122 184 116.157 184.843 117.657 186.343C119.157 187.843 120 189.878 120 192C120 194.122 119.157 196.157 117.657 197.657C116.157 199.157 114.122 200 112 200H80C69.395 200.012 59.2278 204.23 51.7289 211.729C44.23 219.228 40.0119 229.395 40 240V304C40.0119 314.605 44.23 324.772 51.7289 332.271C59.2278 339.77 69.395 343.988 80 344H114.667C116.789 344 118.824 344.843 120.324 346.343C121.824 347.843 122.667 349.878 122.667 352C122.667 354.122 121.824 356.157 120.324 357.657C118.824 359.157 116.789 360 114.667 360Z" fill="#A5C3DC"/>
<path d="M480 80H32C23.1634 80 16 87.1634 16 96C16 104.837 23.1634 112 32 112H480C488.837 112 496 104.837 496 96C496 87.1634 488.837 80 480 80Z" fill="#2682FF"/>
<path d="M240 80H32C23.1634 80 16 87.1634 16 96C16 104.837 23.1634 112 32 112H240C248.837 112 256 104.837 256 96C256 87.1634 248.837 80 240 80Z" fill="#6AA9FF"/>
<path d="M112 112H400V216C400 218.122 399.157 220.157 397.657 221.657C396.157 223.157 394.122 224 392 224H120C117.878 224 115.843 223.157 114.343 221.657C112.843 220.157 112 218.122 112 216V112Z" fill="#2682FF"/>
<path d="M112 128H256V224H120C117.878 224 115.843 223.157 114.343 221.657C112.843 220.157 112 218.122 112 216V128Z" fill="#6AA9FF"/>
<path d="M464 80H480V216H464V80Z" fill="#F5871E"/>
<path d="M464 216H480V224H464V216Z" fill="#D7E6F0"/>
<path d="M464 224H480C482.122 224 484.157 224.843 485.657 226.343C487.157 227.843 488 229.878 488 232V284C488 285.061 487.579 286.078 486.828 286.828C486.078 287.579 485.061 288 484 288H460C458.939 288 457.922 287.579 457.172 286.828C456.421 286.078 456 285.061 456 284V232C456 229.878 456.843 227.843 458.343 226.343C459.843 224.843 461.878 224 464 224Z" fill="#FABE19"/>
<path d="M476 232H488V284C488 285.061 487.579 286.078 486.828 286.828C486.078 287.579 485.061 288 484 288H472V236C472 234.939 472.421 233.922 473.172 233.172C473.922 232.421 474.939 232 476 232Z" fill="#F5871E"/>
</svg>
