<svg width="512" height="512" viewBox="0 0 512 512" fill="none" xmlns="http://www.w3.org/2000/svg">
<path d="M508.495 256C508.495 395.449 395.449 508.495 256 508.495C116.551 508.495 3.505 395.449 3.505 256C3.505 116.551 116.551 3.505 256 3.505C395.449 3.505 508.495 116.551 508.495 256Z" fill="white" stroke="#9A99DE" stroke-width="7.01"/>
<path d="M351.303 293.31L337.109 279.116L337.514 278.71L260.765 194.256L209.058 200.035L144.779 171.545L124.097 278.71L149.24 289.052L234.303 367.829L248.599 382.124C254.783 388.309 264.821 388.309 271.005 382.124C277.19 375.94 277.19 365.903 271.005 359.718L263.908 352.621L266.139 350.391L278.204 362.455C284.388 368.64 294.425 368.64 300.61 362.455C306.794 356.271 306.794 346.234 300.61 340.049L288.444 327.883L290.37 325.956L305.476 341.063C311.661 347.248 321.698 347.248 327.883 341.063C334.067 334.878 334.067 324.841 327.883 318.657L312.776 303.651L314.804 301.624L328.897 315.716C335.081 321.901 345.118 321.901 351.303 315.716C357.488 309.532 357.488 299.495 351.303 293.31Z" fill="#E8D6AC"/>
<path d="M342.989 167.186H248.802C244.442 167.186 240.184 168.909 237.142 172.052L202.772 206.422C197.399 211.796 197.399 220.616 202.772 225.99C208.044 231.262 216.662 231.465 222.137 226.192L242.009 207.335H271.613L337.514 278.71L375.636 250.525L342.989 167.186Z" fill="#54D38A"/>
<path d="M176.615 306.288C182.292 300.61 182.292 291.282 176.615 285.503C170.836 279.826 161.61 279.826 155.83 285.503L146.706 294.628C141.028 300.407 141.028 309.633 146.706 315.412C152.485 321.09 161.711 321.09 167.49 315.412L176.615 306.288Z" fill="#54D38A"/>
<path d="M198.818 327.984C204.496 322.307 204.496 312.979 198.818 307.2C193.039 301.522 183.813 301.522 178.034 307.2L168.909 316.325C163.13 322.104 163.13 331.33 168.909 337.109C174.587 342.787 183.914 342.787 189.693 337.109L198.818 327.984Z" fill="#54D38A"/>
<path d="M220.515 328.795C214.837 323.118 205.51 323.118 199.731 328.795L190.606 337.92C184.928 343.699 184.928 352.925 190.606 358.704C196.284 364.483 205.611 364.483 211.39 358.704L220.515 349.579C226.294 343.8 226.294 334.574 220.515 328.795Z" fill="#54D38A"/>
<path d="M242.82 350.39C237.041 344.713 227.815 344.713 222.036 350.39L217.169 355.257C211.491 360.935 211.491 370.262 217.169 376.041C222.948 381.82 232.174 381.82 237.953 376.041L242.82 371.175C248.599 365.396 248.599 356.169 242.82 350.39Z" fill="#54D38A"/>
<path d="M449.039 237.548L405.849 127.24C405.24 125.516 403.314 124.705 401.59 125.415L338.832 150.051C337.109 150.66 336.298 152.586 337.008 154.31L380.198 264.618C380.806 266.341 382.733 267.152 384.456 266.443L447.214 241.907C448.938 241.096 449.749 239.271 449.039 237.548Z" fill="#495057"/>
<path d="M408.181 242.313C412.884 242.313 416.697 238.5 416.697 233.796C416.697 229.093 412.884 225.28 408.181 225.28C403.477 225.28 399.664 229.093 399.664 233.796C399.664 238.5 403.477 242.313 408.181 242.313Z" fill="white"/>
<path d="M178.744 174.283L119.331 145.388C117.405 144.475 115.073 145.286 114.161 147.213L63.0622 253.263C62.1497 255.189 62.9608 257.521 64.8871 258.433L124.299 287.328C126.226 288.241 128.558 287.43 129.47 285.503L180.569 179.453C181.481 177.527 180.67 175.195 178.744 174.283Z" fill="#495057"/>
<path d="M102.197 261.475C106.901 261.475 110.714 257.662 110.714 252.958C110.714 248.255 106.901 244.442 102.197 244.442C97.4937 244.442 93.6808 248.255 93.6808 252.958C93.6808 257.662 97.4937 261.475 102.197 261.475Z" fill="white"/>
</svg>
