<svg width="512" height="512" viewBox="0 0 512 512" fill="none" xmlns="http://www.w3.org/2000/svg">
<rect width="512" height="512" fill="white"/>
<g clip-path="url(#clip0)">
<path d="M109.834 496.208L94.7787 475.002C91.5827 470.498 85.3397 469.439 80.8357 472.636C76.3327 475.833 75.2727 482.075 78.4707 486.579L93.5257 507.786C95.4757 510.533 98.5577 511.998 101.689 511.998C103.691 511.998 105.712 511.398 107.469 510.151C111.972 506.954 113.032 500.712 109.834 496.208Z" fill="#495057"/>
<path d="M225.205 499.945L208.821 421.857C200.854 383.885 178.734 351.051 146.538 329.402L111.558 305.88C97.5306 296.45 78.6767 298.478 66.9527 310.433V189.938C66.9527 174.122 56.1698 160.684 40.7298 157.257C30.7649 155.043 20.4869 157.441 12.526 163.828C4.56599 170.215 0.00100708 179.732 0.00100708 189.938V344.989C0.00100708 365.302 6.21698 384.795 17.9759 401.36L35.8089 426.481C37.7589 429.228 40.8408 430.693 43.9718 430.693C45.9738 430.693 47.9948 430.093 49.7518 428.846C54.2548 425.649 55.3148 419.407 52.1168 414.903L34.2839 389.782C24.9399 376.619 20.0009 361.13 20.0009 344.988V189.938C20.0009 185.83 21.8389 181.999 25.0429 179.427C28.2459 176.856 32.3829 175.891 36.3969 176.782C42.6118 178.161 46.9528 183.571 46.9528 189.938V312.953C46.9528 330.367 53.3508 346.958 64.9738 359.866C65.4717 360.463 65.9837 361.054 66.5247 361.627C73.1657 368.664 80.9737 376.956 88.3277 384.772L98.6226 395.729C98.6556 395.764 98.6916 395.794 98.7256 395.828C107.533 405.195 114.028 412.112 114.164 412.256C117.943 416.281 124.273 416.481 128.298 412.7C132.324 408.919 132.523 402.591 128.741 398.565C128.559 398.371 116.854 385.906 103.486 371.697L80.5567 347.294C80.4987 347.232 80.4457 347.167 80.3877 347.105C75.0117 340.675 75.0787 331.352 80.7137 324.99C85.6987 319.364 94.1626 318.284 100.4 322.477L135.378 345.999C163.226 364.724 182.357 393.122 189.247 425.964L205.632 504.053C206.621 508.766 210.778 512.001 215.409 512.001C216.089 512.001 216.78 511.931 217.472 511.786C222.877 510.652 226.339 505.35 225.205 499.945Z" fill="#495057"/>
<path d="M74.0888 445.856L74.0248 445.766C70.8148 441.27 64.5708 440.226 60.0758 443.434C55.5808 446.642 54.5368 452.887 57.7438 457.382L57.8078 457.472C59.7598 460.207 62.8348 461.665 65.9568 461.665C67.9668 461.665 69.9958 461.061 71.7568 459.804C76.2508 456.596 77.2958 450.351 74.0888 445.856Z" fill="#495057"/>
<path d="M499.473 163.828C491.513 157.441 481.23 155.047 471.27 157.257C455.83 160.683 445.046 174.122 445.046 189.938V310.434C433.323 298.479 414.467 296.451 400.441 305.881L365.461 329.402C333.264 351.05 311.145 383.884 303.178 421.856L286.794 499.945C285.66 505.35 289.122 510.651 294.527 511.785C295.219 511.93 295.911 512 296.59 512C301.222 512 305.378 508.764 306.367 504.051L322.751 425.962C329.642 393.121 348.772 364.723 376.62 345.999L411.6 322.478C417.835 318.284 426.299 319.364 431.286 324.99C436.914 331.344 436.989 340.652 431.633 347.082C431.569 347.152 431.508 347.224 431.444 347.294C431.444 347.294 383.439 398.372 383.259 398.564C379.478 402.59 379.677 408.918 383.701 412.699C387.727 416.48 394.055 416.281 397.836 412.255C397.972 412.111 438.834 368.665 445.475 361.628C446.016 361.055 446.528 360.464 447.026 359.867C458.648 346.959 465.047 330.368 465.047 312.954V189.937C465.047 183.57 469.388 178.16 475.604 176.781C479.617 175.891 483.753 176.856 486.958 179.426C490.162 181.997 492 185.828 492 189.937V344.989C492 361.131 487.061 376.62 477.717 389.782L402.166 496.209C398.969 500.712 400.028 506.955 404.531 510.152C406.289 511.399 408.309 511.999 410.311 511.999C413.441 511.999 416.524 510.533 418.474 507.787L494.025 401.36C505.784 384.795 512 365.303 512 344.99V189.937C511.997 179.731 507.433 170.215 499.473 163.828Z" fill="#495057"/>
<path d="M382.657 191.659L364.866 187.409V184.219C376.429 176.12 384.011 162.707 384.011 147.549V124.42C384.011 99.7408 363.934 79.6639 339.255 79.6639C328.18 79.6639 318.04 83.7159 310.217 90.4039C301.507 69.0739 280.549 54 256.125 54C231.671 54 210.692 69.1129 202.002 90.4839C194.167 83.7479 183.99 79.6619 172.87 79.6619C148.191 79.6619 128.114 99.7388 128.114 124.418V125.955V147.547C128.114 162.705 135.696 176.118 147.259 184.217V187.407L129.468 191.657C108.226 196.732 93.39 215.529 93.39 237.369V256.045C93.39 261.568 97.868 266.045 103.39 266.045H149.342C149.271 267.258 149.222 268.477 149.222 269.706V305.664C149.222 311.187 153.7 315.664 159.222 315.664H219.332C224.853 315.664 229.331 311.187 229.331 305.664C229.331 300.141 224.853 295.664 219.332 295.664H209V274.999C209 269.476 204.522 264.999 199 264.999C193.478 264.999 189 269.476 189 274.999V295.666H169.223V269.708C169.223 250.421 182.323 233.812 201.077 229.318L228.518 222.742L246.883 264.524C248.479 268.155 252.071 270.5 256.036 270.5H256.037C260.003 270.5 263.595 268.156 265.191 264.525L283.537 222.805L310.892 229.34C329.664 233.825 342.775 250.436 342.775 269.737V295.666H322.998V274.999C322.998 269.476 318.52 264.999 312.998 264.999C307.476 264.999 302.998 269.476 302.998 274.999V295.666H291.665C286.143 295.666 281.665 300.143 281.665 305.666C281.665 311.189 286.143 315.666 291.665 315.666H352.776C358.298 315.666 362.776 311.189 362.776 305.666V269.737C362.776 268.498 362.726 267.27 362.654 266.047H408.736C414.258 266.047 418.736 261.57 418.736 256.047V237.371C418.736 215.531 403.9 196.733 382.657 191.659ZM339.255 99.6618C352.357 99.6618 363.113 109.893 363.957 122.785H350.054C338.366 122.785 326.864 119.971 316.525 114.613C320.328 105.825 329.086 99.6618 339.255 99.6618ZM314.499 146.087C314.511 145.6 314.536 145.115 314.536 144.625V135.719C325.757 140.363 337.824 142.785 350.054 142.785H364.011V147.548C364.011 161.198 352.906 172.304 339.255 172.304C325.604 172.304 314.499 161.198 314.499 147.547V146.087ZM217.716 112.41C217.716 91.2309 234.945 73.9999 256.125 73.9999C275.228 73.9999 291.117 88.0179 294.051 106.306L277.216 96.4148C273.005 93.9408 267.623 94.8698 264.486 98.6148C256.259 108.433 244.194 114.064 231.384 114.064H217.716V112.41ZM172.871 99.6618C183.04 99.6618 191.797 105.826 195.601 114.612C185.261 119.97 173.76 122.784 162.072 122.784H148.169C149.013 109.893 159.77 99.6618 172.871 99.6618ZM148.115 142.784H162.072C174.315 142.784 186.395 140.357 197.627 135.703V147.546C197.627 161.196 186.522 172.302 172.871 172.302C159.22 172.302 148.115 161.198 148.115 147.547V142.784ZM196.417 209.868C176.743 214.582 161.281 228.299 153.922 246.046H113.39V237.37C113.39 224.824 121.912 214.025 134.115 211.11L159.583 205.026C164.084 203.951 167.26 199.928 167.26 195.3V191.938C169.1 192.169 170.97 192.302 172.871 192.302C174.758 192.302 176.615 192.171 178.441 191.943V194.796C178.434 194.945 178.431 195.094 178.43 195.243C178.428 198.524 180.041 201.738 183.003 203.654C184.119 204.377 185.325 204.847 186.556 205.082L201.473 208.656L196.417 209.868ZM224.311 194.344C221.742 193.211 219.064 192.305 216.304 191.644L198.44 187.363V184.247C201.664 181.994 204.579 179.332 207.107 176.33C211.573 183.209 217.441 189.092 224.311 193.573V194.344ZM267.742 209.037L256.04 235.652L244.311 208.969V201.833C248.128 202.62 252.079 203.035 256.125 203.035C260.102 203.035 263.986 202.632 267.742 201.871V209.037ZM256.125 183.034C234.945 183.035 217.716 165.805 217.716 144.625V134.063H231.384C247.242 134.063 262.32 128.166 273.876 117.648L294.498 129.764V146.088C293.726 166.591 276.815 183.034 256.125 183.034ZM287.742 194.376V193.699C294.668 189.221 300.588 183.323 305.089 176.414C307.6 179.382 310.49 182.015 313.683 184.247V187.363L295.818 191.644C293.034 192.312 290.333 193.229 287.742 194.376ZM398.735 246.046H358.065C350.699 228.299 335.226 214.59 315.54 209.887L310.519 208.688L325.516 205.094C326.764 204.862 327.99 204.386 329.121 203.654C332.078 201.741 333.686 198.527 333.686 195.246C333.686 195.168 333.685 195.089 333.683 195.011V191.943C335.51 192.171 337.366 192.302 339.253 192.302C341.154 192.302 343.024 192.169 344.864 191.938V195.3C344.864 199.928 348.04 203.951 352.541 205.026L378.009 211.11C390.212 214.026 398.735 224.824 398.735 237.37V246.046Z" fill="#54D38A"/>
<path d="M263.068 298.589C261.199 296.729 258.629 295.669 255.999 295.669C253.358 295.669 250.789 296.729 248.929 298.589C247.059 300.459 245.999 303.029 245.999 305.669C245.999 308.299 247.059 310.869 248.929 312.739C250.789 314.599 253.359 315.669 255.999 315.669C258.629 315.669 261.199 314.599 263.068 312.739C264.928 310.869 265.999 308.299 265.999 305.669C265.999 303.029 264.929 300.459 263.068 298.589Z" fill="#495057"/>
<path d="M255.993 0C250.471 0 245.993 4.477 245.993 10V24.963C245.993 30.486 250.471 34.963 255.993 34.963C261.515 34.963 265.993 30.486 265.993 24.963V10C265.993 4.477 261.516 0 255.993 0Z" fill="#495057"/>
<path d="M219.157 32.619L208.667 22.139C204.76 18.235 198.429 18.238 194.525 22.145C190.621 26.052 190.625 32.384 194.532 36.287L205.023 46.767C206.975 48.718 209.533 49.693 212.09 49.693C214.651 49.693 217.211 48.715 219.164 46.761C223.066 42.854 223.064 36.522 219.157 32.619Z" fill="#495057"/>
<path d="M317.221 22.3949C313.314 18.4919 306.981 18.4939 303.079 22.4019L292.67 32.8209C288.767 36.7279 288.77 43.0599 292.677 46.9629C294.63 48.9139 297.187 49.8889 299.745 49.8889C302.306 49.8889 304.867 48.9109 306.819 46.9559L317.228 36.5369C321.131 32.6299 321.128 26.2979 317.221 22.3949Z" fill="#495057"/>
</g>
<defs>
<clipPath id="clip0">
<rect width="512" height="512" fill="white"/>
</clipPath>
</defs>
</svg>
