<svg width="150" height="150" viewBox="0 0 150 150" fill="none" xmlns="http://www.w3.org/2000/svg">
<rect width="150" height="150" fill="#EDEDED"/>
<g clip-path="url(#clip0)">
<path d="M150 22.8676V96.7621H138.271V22.8676C138.271 19.6335 135.64 17.0025 132.406 17.0025H17.5941C14.36 17.0025 11.729 19.6335 11.729 22.8676V67.2478L35.9928 31.786L55.4546 56.1127L64.2735 43.4361L101.91 92.363V96.7621H90.4953L64.7495 63.2915L31.7917 110.668L22.1626 103.97L48.468 66.156L36.7287 51.4824L11.729 88.0199V116.702C11.729 119.935 14.36 122.566 17.5941 122.566H77.5715V134.296H17.5941C7.89299 134.296 0 126.403 0 116.702V22.8676C0 13.1664 7.89299 5.27344 17.5941 5.27344H132.406C142.107 5.27344 150 13.1653 150 22.8676ZM110.707 61.5738C101.006 61.5738 93.1126 53.6808 93.1126 43.9796C93.1126 34.2785 101.006 26.3855 110.707 26.3855C120.408 26.3855 128.301 34.2785 128.301 43.9796C128.301 53.6808 120.408 61.5738 110.707 61.5738ZM116.572 43.9796C116.572 40.7455 113.941 38.1157 110.707 38.1157C107.473 38.1157 104.842 40.7455 104.842 43.9796C104.842 47.2137 107.473 49.8447 110.707 49.8447C113.941 49.8447 116.572 47.2137 116.572 43.9796ZM125.369 83.86H113.639V108.491H89.0076V120.22H113.639V144.852H125.369V120.22H150V108.491H125.369V83.86Z" fill="#B8B5B5"/>
</g>
<defs>
<clipPath id="clip0">
<rect width="150" height="150" fill="white"/>
</clipPath>
</defs>
</svg>
