<svg width="250" height="250" viewBox="0 0 250 250" fill="none" xmlns="http://www.w3.org/2000/svg">
<rect width="250" height="250" fill="#EDEDED"/>
<g clip-path="url(#clip0)">
<path d="M250 38.1126V161.27H230.452V38.1126C230.452 32.7225 226.067 28.3375 220.676 28.3375H29.3236C23.9334 28.3375 19.5484 32.7225 19.5484 38.1126V112.08L59.988 52.9766L92.4244 93.5211L107.122 72.3934L169.849 153.938V161.27H150.826L107.916 105.486L52.9861 184.446L36.9377 173.283L80.78 110.26L61.2144 85.804L19.5484 146.7V194.504C19.5484 199.892 23.9334 204.277 29.3236 204.277H129.286V223.827H29.3236C13.155 223.827 0 210.672 0 194.504V38.1126C0 21.944 13.155 8.78906 29.3236 8.78906H220.676C236.845 8.78906 250 21.9421 250 38.1126ZM184.511 102.623C168.343 102.623 155.188 89.468 155.188 73.2994C155.188 57.1308 168.343 43.9758 184.511 43.9758C200.68 43.9758 213.835 57.1308 213.835 73.2994C213.835 89.468 200.68 102.623 184.511 102.623ZM194.286 73.2994C194.286 67.9092 189.901 63.5262 184.511 63.5262C179.121 63.5262 174.736 67.9092 174.736 73.2994C174.736 78.6896 179.121 83.0746 184.511 83.0746C189.901 83.0746 194.286 78.6896 194.286 73.2994ZM208.948 139.767H189.398V180.819H148.346V200.367H189.398V241.421H208.948V200.367H250V180.819H208.948V139.767Z" fill="#B8B5B5"/>
</g>
<defs>
<clipPath id="clip0">
<rect width="250" height="250" fill="white"/>
</clipPath>
</defs>
</svg>
