<svg width="512" height="512" viewBox="0 0 512 512" fill="none" xmlns="http://www.w3.org/2000/svg">
<rect width="512" height="512" fill="#0A263B"/>
<path d="M256 248C265.494 248 274.774 245.185 282.667 239.911C290.561 234.636 296.713 227.14 300.346 218.369C303.979 209.598 304.93 199.947 303.078 190.636C301.226 181.325 296.654 172.772 289.941 166.059C283.228 159.346 274.675 154.774 265.364 152.922C256.053 151.07 246.402 152.021 237.631 155.654C228.86 159.287 221.364 165.439 216.089 173.333C210.815 181.226 208 190.507 208 200C208.015 212.726 213.076 224.926 222.075 233.925C231.074 242.924 243.274 247.985 256 248ZM256 168C262.329 168 268.516 169.877 273.778 173.393C279.041 176.909 283.142 181.907 285.564 187.754C287.986 193.601 288.62 200.036 287.385 206.243C286.15 212.45 283.103 218.152 278.627 222.627C274.152 227.103 268.45 230.15 262.243 231.385C256.035 232.62 249.601 231.986 243.754 229.564C237.907 227.142 232.909 223.041 229.393 217.778C225.877 212.516 224 206.329 224 200C224.01 191.516 227.384 183.382 233.383 177.383C239.382 171.384 247.516 168.01 256 168Z" fill="white"/>
<path d="M256 208H264C266.122 208 268.157 207.157 269.657 205.657C271.157 204.157 272 202.122 272 200C272 197.878 271.157 195.843 269.657 194.343C268.157 192.843 266.122 192 264 192V184C264 181.878 263.157 179.843 261.657 178.343C260.157 176.843 258.122 176 256 176C253.878 176 251.843 176.843 250.343 178.343C248.843 179.843 248 181.878 248 184V200C248 202.122 248.843 204.157 250.343 205.657C251.843 207.157 253.878 208 256 208Z" fill="white"/>
<path d="M320 304V272C320 269.878 319.157 267.843 317.657 266.343C316.157 264.843 314.122 264 312 264H200C197.878 264 195.843 264.843 194.343 266.343C192.843 267.843 192 269.878 192 272V304C192 306.122 192.843 308.157 194.343 309.657C195.843 311.157 197.878 312 200 312H312C314.122 312 316.157 311.157 317.657 309.657C319.157 308.157 320 306.122 320 304ZM304 296H208V280H304V296Z" fill="white"/>
<path d="M72 264H136C138.122 264 140.157 263.157 141.657 261.657C143.157 260.157 144 258.122 144 256C144 253.878 143.157 251.843 141.657 250.343C140.157 248.843 138.122 248 136 248V192C136 189.878 135.157 187.843 133.657 186.343C132.157 184.843 130.122 184 128 184H80C77.8783 184 75.8434 184.843 74.3431 186.343C72.8429 187.843 72 189.878 72 192V248C69.8783 248 67.8434 248.843 66.3431 250.343C64.8429 251.843 64 253.878 64 256C64 258.122 64.8429 260.157 66.3431 261.657C67.8434 263.157 69.8783 264 72 264ZM88 200H120V248H88V200Z" fill="white"/>
<path d="M136 344V288C136 285.878 135.157 283.843 133.657 282.343C132.157 280.843 130.122 280 128 280H80C77.8783 280 75.8434 280.843 74.3431 282.343C72.8429 283.843 72 285.878 72 288V344C69.8783 344 67.8434 344.843 66.3431 346.343C64.8429 347.843 64 349.878 64 352C64 354.122 64.8429 356.157 66.3431 357.657C67.8434 359.157 69.8783 360 72 360H136C138.122 360 140.157 359.157 141.657 357.657C143.157 356.157 144 354.122 144 352C144 349.878 143.157 347.843 141.657 346.343C140.157 344.843 138.122 344 136 344ZM88 296H120V344H88V296Z" fill="white"/>
<path d="M136 440V384C136 381.878 135.157 379.843 133.657 378.343C132.157 376.843 130.122 376 128 376H80C77.8783 376 75.8434 376.843 74.3431 378.343C72.8429 379.843 72 381.878 72 384V440C69.8783 440 67.8434 440.843 66.3431 442.343C64.8429 443.843 64 445.878 64 448C64 450.122 64.8429 452.157 66.3431 453.657C67.8434 455.157 69.8783 456 72 456H136C138.122 456 140.157 455.157 141.657 453.657C143.157 452.157 144 450.122 144 448C144 445.878 143.157 443.843 141.657 442.343C140.157 440.843 138.122 440 136 440ZM88 392H120V440H88V392Z" fill="white"/>
<path d="M376 264H440C442.122 264 444.157 263.157 445.657 261.657C447.157 260.157 448 258.122 448 256C448 253.878 447.157 251.843 445.657 250.343C444.157 248.843 442.122 248 440 248V192C440 189.878 439.157 187.843 437.657 186.343C436.157 184.843 434.122 184 432 184H384C381.878 184 379.843 184.843 378.343 186.343C376.843 187.843 376 189.878 376 192V248C373.878 248 371.843 248.843 370.343 250.343C368.843 251.843 368 253.878 368 256C368 258.122 368.843 260.157 370.343 261.657C371.843 263.157 373.878 264 376 264ZM392 200H424V248H392V200Z" fill="white"/>
<path d="M376 360H440C442.122 360 444.157 359.157 445.657 357.657C447.157 356.157 448 354.122 448 352C448 349.878 447.157 347.843 445.657 346.343C444.157 344.843 442.122 344 440 344V288C440 285.878 439.157 283.843 437.657 282.343C436.157 280.843 434.122 280 432 280H384C381.878 280 379.843 280.843 378.343 282.343C376.843 283.843 376 285.878 376 288V344C373.878 344 371.843 344.843 370.343 346.343C368.843 347.843 368 349.878 368 352C368 354.122 368.843 356.157 370.343 357.657C371.843 359.157 373.878 360 376 360ZM392 296H424V344H392V296Z" fill="white"/>
<path d="M376 456H440C442.122 456 444.157 455.157 445.657 453.657C447.157 452.157 448 450.122 448 448C448 445.878 447.157 443.843 445.657 442.343C444.157 440.843 442.122 440 440 440V384C440 381.878 439.157 379.843 437.657 378.343C436.157 376.843 434.122 376 432 376H384C381.878 376 379.843 376.843 378.343 378.343C376.843 379.843 376 381.878 376 384V440C373.878 440 371.843 440.843 370.343 442.343C368.843 443.843 368 445.878 368 448C368 450.122 368.843 452.157 370.343 453.657C371.843 455.157 373.878 456 376 456ZM392 392H424V440H392V392Z" fill="white"/>
<path d="M488 160C490.122 160 492.157 159.157 493.657 157.657C495.157 156.157 496 154.122 496 152C496 149.878 495.157 147.843 493.657 146.343C492.157 144.843 490.122 144 488 144H346.6L264 83.926V65.444L302.685 71.891C303.831 72.0819 305.005 72.021 306.125 71.7124C307.245 71.4038 308.284 70.8549 309.171 70.1039C310.057 69.353 310.77 68.4179 311.258 67.3638C311.747 66.3097 312 65.1618 312 64V32C312 30.1062 311.328 28.2739 310.104 26.829C308.88 25.3841 307.183 24.4202 305.315 24.109L257.315 16.109V16.117C256.169 15.9178 254.992 15.9727 253.869 16.2777C252.746 16.5826 251.704 17.1303 250.816 17.882C249.927 18.6337 249.215 19.5712 248.728 20.6283C248.242 21.6854 247.993 22.8363 248 24V83.926L165.4 144H24C21.8783 144 19.8434 144.843 18.3431 146.343C16.8429 147.843 16 149.878 16 152C16 154.122 16.8429 156.157 18.3431 157.657C19.8434 159.157 21.8783 160 24 160H32V480H24C21.8783 480 19.8434 480.843 18.3431 482.343C16.8429 483.843 16 485.878 16 488C16 490.122 16.8429 492.157 18.3431 493.657C19.8434 495.157 21.8783 496 24 496H488C490.122 496 492.157 495.157 493.657 493.657C495.157 492.157 496 490.122 496 488C496 485.878 495.157 483.843 493.657 482.343C492.157 480.843 490.122 480 488 480H480V160H488ZM248 480H216V392C216.012 382.783 219.201 373.852 225.03 366.712C230.859 359.572 238.972 354.661 248 352.805V480ZM264 352.805C273.028 354.661 281.141 359.572 286.97 366.712C292.799 373.852 295.988 382.783 296 392V480H264V352.805ZM256 336C241.153 336.017 226.919 341.922 216.421 352.421C205.922 362.919 200.017 377.153 200 392V480H176V156.074L256 97.892L336 156.074V480H312V392C311.983 377.153 306.078 362.919 295.579 352.421C285.081 341.922 270.847 336.017 256 336ZM296 54.556L264 49.223V33.444L296 38.777V54.556ZM48 160H160V480H48V160ZM464 480H352V160H464V480Z" fill="white"/>
</svg>
