<?xml version="1.0"?>
<svg xmlns="http://www.w3.org/2000/svg" xmlns:xlink="http://www.w3.org/1999/xlink" version="1.1" id="Capa_1" x="0px" y="0px" viewBox="0 0 512 512" style="enable-background:new 0 0 512 512;" xml:space="preserve" width="512px" height="512px"><g><g>
	<g>
		<path d="M496.35,134.3L377.65,15.6C367.55,5.5,354.25,0,339.95,0h-167.9c-14.2,0-27.6,5.5-37.7,15.6L15.65,134.4    c-10.1,10.1-15.6,23.4-15.6,37.7v167.8c0,14.3,5.5,27.7,15.6,37.8l118.8,118.7c10.1,10.1,23.4,15.6,37.7,15.6h167.8    c14.3,0,27.7-5.5,37.8-15.6l118.6-118.8c10.1-10.1,15.6-23.4,15.6-37.7V172C511.95,157.8,506.45,144.4,496.35,134.3z     M490.85,339.9c0,8.6-3.3,16.6-9.4,22.7l-118.7,118.7c-6.1,6.1-14.1,9.4-22.7,9.4h-167.9c-8.6,0-16.6-3.3-22.7-9.4L30.75,362.6    c-6.1-6.1-9.4-14.1-9.4-22.7V172c0-8.5,3.4-16.6,9.4-22.6l118.8-118.7c6-6.1,14-9.4,22.6-9.4h167.8c8.6,0,16.6,3.4,22.7,9.4    l118.8,118.7c6.1,6.1,9.4,14.1,9.4,22.7V339.9z" data-original="#000000" class="active-path" data-old_color="#000000" fill="#EC0606"/>
	</g>
</g><g>
	<g>
		<path d="M111.25,246.3l-3.2-1c-11.8-3.3-22.7-8.9-22.7-26.6c0-14.7,9.6-26.7,21.4-26.7c11.2,0,20.6,10.9,21.2,24.9    c0.3,5.9,4.9,11.1,11.2,10.1c5.9-0.3,10.4-5.3,10.1-11.2c-1.3-25.2-20.1-45-42.6-45c-23.6,0-42.7,21.5-42.7,48    c0,16.5,6.7,38.1,38.2,47.1l3.2,0.9c11.8,3.4,22.7,8.9,22.7,26.6c0,14.7-9.6,26.7-21.4,26.7c-11.2,0-20.5-11-21.3-24.9    c-0.3-5.9-4.7-10.5-11.2-10.1c-5.9,0.3-10.4,5.3-10.1,11.2c1.3,25.2,20.1,45,42.6,45c23.6,0,42.7-21.5,42.7-47.9    C149.35,269.4,136.55,253.6,111.25,246.3z" data-original="#000000" class="active-path" data-old_color="#000000" fill="#EC0606"/>
	</g>
</g><g>
	<g>
		<path d="M245.35,170.6h-85.3c-5.9,0-10.7,4.8-10.7,10.7s4.8,10.7,10.7,10.7h85.3c5.9,0,10.7-4.8,10.7-10.7    S251.25,170.6,245.35,170.6z" data-original="#000000" class="active-path" data-old_color="#000000" fill="#EC0606"/>
	</g>
</g><g>
	<g>
		<path d="M202.75,170.6c-5.9,0-10.7,4.8-10.7,10.7v149.3c0,5.9,4.8,10.7,10.7,10.7s10.6-4.7,10.7-10.7V181.3    C213.45,175.4,208.65,170.6,202.75,170.6z" data-original="#000000" class="active-path" data-old_color="#000000" fill="#EC0606"/>
	</g>
</g><g>
	<g>
		<path d="M298.75,170.6c-23.6,0-42.7,19.2-42.7,42.7v85.3c0,23.6,19.2,42.7,42.7,42.7s42.6-19.1,42.7-42.7v-85.3    C341.45,189.7,322.35,170.6,298.75,170.6z M320.05,298.6c0,11.7-9.5,21.3-21.3,21.3c-11.7,0-21.3-9.5-21.3-21.3v-85.3    c0-11.7,9.5-21.3,21.3-21.3c11.7,0,21.3,9.6,21.3,21.3V298.6z" data-original="#000000" class="active-path" data-old_color="#000000" fill="#EC0606"/>
	</g>
</g><g>
	<g>
		<path d="M416.05,170.6h-42.7c-5.9,0-10.7,4.8-10.7,10.7v149.3c0,5.9,4.8,10.7,10.7,10.7c5.9,0,10.7-4.7,10.7-10.7v-53.3h32    c17.6,0,32-14.4,32-32v-42.7C448.05,185,433.65,170.6,416.05,170.6z M426.75,245.3c0,5.9-4.8,10.7-10.7,10.7h-32v-64.1h32    c5.9,0,10.7,4.8,10.7,10.7V245.3z" data-original="#000000" class="active-path" data-old_color="#000000" fill="#EC0606"/>
	</g>
</g></g> </svg>
