<svg width="512" height="512" viewBox="0 0 512 512" fill="none" xmlns="http://www.w3.org/2000/svg">
<path d="M512 63.6L480.099 512H31.901L0 63.6L74.2 45L256 75L437.8 45L512 63.6Z" fill="#6AA9FF"/>
<path d="M480.099 512L512 63.6L437.8 45L256 75V512H480.099Z" fill="#2682FF"/>
<path d="M295.901 369.899V370.199C283.001 373.5 269.801 375 256 375C242.199 375 228.999 373.5 216.099 370.199V369.899L198.187 285L241 195L256 165L271 195L313.813 285L295.901 369.899Z" fill="#FF641A"/>
<path d="M295.901 370.199V369.899L313.814 285L271 195L256 165V375C269.801 375 283.001 373.5 295.901 370.199Z" fill="#F03800"/>
<path d="M307 153.9L271 195H241L205 153.9L256 40.8L307 153.9Z" fill="#F03800"/>
<path d="M271 195L307 153.9L256 40.8V195H271Z" fill="#CD0000"/>
<path d="M352.301 0L334.15 80.4L256 100.8L172.691 75L159.699 0L352.301 0Z" fill="#FFF5F5"/>
<path d="M256 100.8L334.151 80.4L352.301 0H256V100.8Z" fill="#EFE2DD"/>
<path d="M331 420H421V450H331V420Z" fill="#EFE2DD"/>
<path d="M383.8 31.5L346 195L307 153.9L256 100.8L352.301 0L383.8 31.5Z" fill="#E1D3CE"/>
<path d="M256 100.8L205 153.9L166 195L128.2 31.5L159.699 0L256 100.8Z" fill="#EFE2DD"/>
<path d="M241 195L216.099 369.899C147.899 354.271 91.904 294.165 86.2 216.9L74.2 45L128.2 31.5L166 195L205 153.9L241 195Z" fill="#FFF5F5"/>
<path d="M437.8 45L425.799 216.899C420.099 292.199 366.4 353.399 295.9 369.898L271 195L307 153.9L346 195L383.8 31.5L437.8 45Z" fill="#EFE2DD"/>
</svg>
