<?xml version="1.0" encoding="iso-8859-1"?>
<!-- Generator: Adobe Illustrator 19.0.0, SVG Export Plug-In . SVG Version: 6.00 Build 0)  -->
<svg version="1.1" id="Capa_1" xmlns="http://www.w3.org/2000/svg" xmlns:xlink="http://www.w3.org/1999/xlink" x="0px" y="0px"
	 viewBox="0 0 512 512" style="enable-background:new 0 0 512 512;" xml:space="preserve">
<path style="fill:#6F3D28;" d="M354.267,182.549c-25.095,0-47.586,11.097-62.879,28.634c-10.283-17.151-29.047-28.634-50.499-28.634
	c-32.499,0-58.845,26.346-58.845,58.845l255.645,24.578C437.688,219.899,400.339,182.549,354.267,182.549z"/>
<g>
	<path style="fill:#AB5034;" d="M68.178,236.225c0-11.045,8.955-20,20-20c4.461,0,8.089-3.628,8.089-8.089c0-11.045,8.955-20,20-20
		s20,8.955,20,20c0,26.515-21.573,48.089-48.089,48.089C77.132,256.225,68.178,247.27,68.178,236.225z"/>
	<path style="fill:#AB5034;" d="M145.019,185.638c7.81-7.81,20.474-7.81,28.285,0c3.154,3.154,8.285,3.154,11.439,0
		c7.81-7.81,20.474-7.81,28.285,0c7.81,7.81,7.81,20.474,0,28.284c-18.75,18.75-49.258,18.75-68.007,0
		C137.207,206.112,137.207,193.449,145.019,185.638z"/>
	<path style="fill:#AB5034;" d="M318.578,159.748c11.045,0,20,8.955,20,20c0,4.461,3.628,8.089,8.089,8.089c11.045,0,20,8.955,20,20
		s-8.955,20-20,20c-26.515,0-48.089-21.573-48.089-48.089C298.578,168.702,307.533,159.748,318.578,159.748z"/>
	<path style="fill:#AB5034;" d="M436.302,248.043c-11.045,0-20-8.955-20-20c0-4.461-3.628-8.089-8.089-8.089
		c-11.045,0-20-8.955-20-20c0-11.045,8.955-20,20-20c26.515,0,48.089,21.573,48.089,48.089
		C456.302,239.089,447.348,248.043,436.302,248.043z"/>
</g>
<path style="fill:#8D472E;" d="M86.451,276.771c45.798,14.768,106.012,22.9,169.549,22.9s123.75-8.133,169.549-22.9
	c16.559-5.34,28.869-10.788,37.939-15.773c-3.362-4.734-8.164-8.525-13.696-10.737c-7.804-3.143-16.347-2.989-23.65,0.253
	c-3.029,1.356-6.002,2.697-8.947,4.096c-1.127,0.535-2.409,0.646-3.609,0.305c-0.014-0.004-0.029-0.009-0.043-0.012
	c-1.205-0.342-2.246-1.109-2.923-2.165l-1.395-2.18c-1.313-2.015-2.661-3.974-4.022-5.972c-1.123-1.642-2.401-3.169-3.812-4.57
	c-1.414-1.381-2.964-2.601-4.62-3.693c-1.657-1.084-3.419-2.042-5.266-2.807c-1.85-0.743-3.78-1.328-5.766-1.738
	c-7.958-1.636-16.174-0.116-22.876,4.146c-2.763,1.727-5.498,3.521-8.211,5.325c-1.041,0.692-2.293,0.975-3.532,0.802
	c-0.018-0.002-0.036-0.005-0.054-0.007c-1.239-0.173-2.372-0.797-3.183-1.75c-2.108-2.479-4.24-4.933-6.403-7.398
	c-2.62-3.004-5.783-5.405-9.297-7.165c-1.756-0.882-3.599-1.619-5.503-2.17c-1.905-0.529-3.872-0.89-5.873-1.072
	c-4.006-0.386-8.001,0.039-11.769,1.163c-1.884,0.556-3.71,1.28-5.455,2.169c-1.745,0.915-3.408,1.991-4.964,3.222
	c-2.567,2.032-5.107,4.062-7.629,6.117c-0.972,0.791-2.197,1.2-3.45,1.143c-0.013-0.001-0.027-0.001-0.039-0.002
	c-1.251-0.057-2.437-0.565-3.335-1.439c-2.335-2.272-4.688-4.545-7.07-6.755c-2.884-2.695-6.249-4.837-9.898-6.281
	c-3.649-1.41-7.582-2.177-11.59-2.198c-4.013,0.031-7.947,0.788-11.596,2.202c-3.649,1.468-7.012,3.594-9.897,6.297
	c-2.38,2.225-4.732,4.498-7.065,6.769c-0.898,0.874-2.085,1.385-3.337,1.44c-0.013,0.001-0.027,0.001-0.041,0.002
	c-1.249,0.055-2.473-0.35-3.443-1.138c-2.525-2.05-5.067-4.073-7.638-6.113c-3.113-2.48-6.652-4.271-10.419-5.374
	c-1.884-0.555-3.824-0.944-5.794-1.151c-1.969-0.179-3.968-0.181-5.969-0.002c-2.003,0.185-3.971,0.533-5.877,1.077
	c-1.904,0.561-3.747,1.29-5.503,2.175c-1.756,0.885-3.425,1.925-4.982,3.115c-1.555,1.216-3.001,2.576-4.31,4.067
	c-2.162,2.457-4.291,4.921-6.395,7.405c-0.809,0.956-1.941,1.581-3.18,1.757c-0.016,0.002-0.033,0.004-0.05,0.007
	c-1.238,0.176-2.492-0.107-3.535-0.798c-2.717-1.801-5.454-3.584-8.221-5.313c-3.353-2.111-7.083-3.601-10.966-4.262
	c-3.886-0.695-7.936-0.699-11.905,0.148c-1.988,0.413-3.921,0.986-5.77,1.743c-1.846,0.785-3.61,1.729-5.265,2.817
	c-3.316,2.145-6.18,4.997-8.423,8.283c-1.855,2.682-3.646,5.425-5.402,8.169c-0.673,1.053-1.706,1.818-2.907,2.161
	c-0.016,0.004-0.032,0.01-0.048,0.014c-1.203,0.345-2.489,0.236-3.619-0.3c-0.785-0.371-1.571-0.738-2.362-1.098l-6.592-2.979
	c-7.302-3.222-15.853-3.339-23.649-0.185c-5.317,2.156-9.959,5.748-13.284,10.242C57.265,265.843,69.68,271.363,86.451,276.771z"/>
<path style="fill:#ADA999;" d="M235.076,166.932L129.06,46.782c-4.006-4.54-9.775-7.251-15.825-7.44
	c-6.051-0.188-11.977,2.158-16.257,6.439s-6.627,10.206-6.439,16.257c0.189,6.051,2.901,11.82,7.44,15.825l120.15,106.016
	c-8.873,16.198-6.461,36.932,7.259,50.652c16.662,16.662,66.305,39.29,82.967,22.627c16.662-16.662-5.965-66.305-22.627-82.967
	C272.008,160.471,251.276,158.06,235.076,166.932z"/>
<path style="fill:#989487;" d="M298.237,191.17c-4.092-6.965-8.474-12.944-12.509-16.979c-13.719-13.719-34.453-16.131-50.652-7.259
	l-0.572-0.649l0,0L129.061,46.782c-4.006-4.54-9.775-7.251-15.825-7.44c-6.051-0.188-11.977,2.158-16.257,6.439
	c-0.202,0.202-0.377,0.423-0.569,0.631l129.241,129.241c-10.154,15.122-8.554,35.792,4.812,49.158
	c15.191,15.191,47.68,23.051,62.871,7.859C303.089,222.914,303.329,206.03,298.237,191.17z"/>
<g>
	<path style="fill:#513322;" d="M169.6,279.692c-11.045,0-20-8.955-20-20c0-4.461-3.628-8.089-8.089-8.089c-11.045,0-20-8.955-20-20
		s8.955-20,20-20c26.515,0,48.089,21.573,48.089,48.089C189.6,270.737,180.645,279.692,169.6,279.692z"/>
	<path style="fill:#513322;" d="M377.245,213.735c-11.045,0-20,8.955-20,20s8.955,20,20,20c4.461,0,8.089,3.629,8.089,8.089
		c0,2.861,0.611,5.575,1.693,8.036c13.584-2.898,26.403-6.261,38.256-10.071C424.21,234.214,403.077,213.735,377.245,213.735z"/>
	<path style="fill:#513322;" d="M338.933,242.27c0,11.045-8.955,20-20,20c-4.461,0-8.089,3.628-8.089,8.089c0,11.045-8.955,20-20,20
		s-20-8.955-20-20c0-26.515,21.573-48.089,48.089-48.089C329.98,222.27,338.933,231.223,338.933,242.27z"/>
	<path style="fill:#513322;" d="M239.378,254.002c0-11.045-8.955-20-20-20c-11.045,0-20,8.955-20,20c0,1.957,0.131,3.883,0.359,5.78
		c14.437,0.933,29.215,1.43,44.183,1.479C241.236,259.946,239.378,257.19,239.378,254.002z"/>
</g>
<path style="fill:#A6C1AD;" d="M480.543,259.335H256.015L108.8,420.203h0.022c0,0.669,0.012,1.335,0.035,2
	c1.009,28.325,24.607,50.466,52.586,50.466h94.572h94.572c27.979,0,51.577-22.141,52.586-50.466c0.023-0.665,0.035-1.331,0.035-2
	h0.022c54.082-27.802,93.442-70.495,107.527-120.183C516.531,279.647,501.465,259.335,480.543,259.335z"/>
<path style="fill:#C2D5BF;" d="M318.247,371.888L318.247,371.888c34.779-46.074,2.35-112.553-54.903-112.553H31.487
	c-20.845,0-35.994,20.197-30.266,40.501c14.042,49.772,53.447,92.531,107.604,120.366h112.523c37.679,0,73.404-17.478,96.428-47.693
	C317.933,372.303,318.091,372.096,318.247,371.888z"/>
<g>
</g>
<g>
</g>
<g>
</g>
<g>
</g>
<g>
</g>
<g>
</g>
<g>
</g>
<g>
</g>
<g>
</g>
<g>
</g>
<g>
</g>
<g>
</g>
<g>
</g>
<g>
</g>
<g>
</g>
</svg>
