<svg width="150" height="150" viewBox="0 0 150 150" fill="none" xmlns="http://www.w3.org/2000/svg">
<g clip-path="url(#clip0)">
<path d="M75 150C116.421 150 150 116.421 150 75C150 33.5786 116.421 0 75 0C33.5786 0 0 33.5786 0 75C0 116.421 33.5786 150 75 150Z" fill="#5F98D1"/>
<path d="M121.82 43.2029H27.9955L61.9854 78.5953L71.794 88.5269C66.4573 87.307 66.1271 86.5468 63.7623 84.6161C62.5219 83.6033 60.1254 80.8509 56.4855 77.1337C45.1239 65.5318 25.8448 45.8449 25.8448 45.8449V104.094L28.2662 106.515L27.9952 106.797L71.0976 149.9C72.3902 149.966 73.691 150 75 150C116.421 150 150 116.421 150 75C150 73.7561 149.968 72.5197 149.908 71.2907L121.82 43.2029Z" fill="#3A6DA1"/>
<path d="M25.8448 45.8449V104.094L54.2505 74.8515L25.8448 45.8449Z" fill="white"/>
<path d="M124.155 45.8449V104.094L95.8907 74.9692L124.155 45.8449Z" fill="white"/>
<path d="M27.9955 43.2029H121.82L84.9457 81.5988C82.3213 84.3313 78.6964 85.8759 74.908 85.8759C71.1196 85.8759 67.4947 84.3313 64.8703 81.5988L27.9955 43.2029Z" fill="white"/>
<path d="M87.0729 83.6414C83.9092 86.9355 79.4754 88.8252 74.908 88.8252C70.3409 88.8252 65.9068 86.9361 62.7433 83.6417L56.4887 77.129L27.9955 106.797H121.82L93.3272 77.129L87.0729 83.6414Z" fill="white"/>
</g>
<defs>
<clipPath id="clip0">
<rect width="150" height="150" fill="white"/>
</clipPath>
</defs>
</svg>
