<svg id="Layer_1" enable-background="new 0 0 512 512" height="512" viewBox="0 0 512 512" width="512" xmlns="http://www.w3.org/2000/svg"><g><path d="m256.297 430.685 236.808-101.781c5.149-19.775 7.896-40.519 7.896-61.906 0-135.311-109.691-245.002-245.002-245.002s-245.001 109.691-245.001 245.002c0 21.387 2.747 42.131 7.896 61.906z" fill="#ff7186"/><path d="m62.682 231.392h176.089c4.845 0 9.238 2.012 12.399 5.237-.388-11.733-1.066-30.154-2.16-35.299-.955-4.49-1.494-9.055-1.49-13.645.001-.611-.005-1.257-.019-1.934-.307-14.84-4.637-44.392-33.988-46.791-2.892-.236-4.431-1.359-7.84-3.281-4.799-2.706-9.644-5.015-14.664-6.909.914 1.173 1.29 2.69 1.028 4.167-2.55 14.379-14.748 24.4-21.794 29.095-2.441 1.626-5.783.991-7.447-1.418-.07-.069-.276-.602-.889-.558-.296.024-.557.205-.684.474-1.79 3.802-2.971 8.078-3.512 12.707v.191c.223 1.911.336 3.888.336 5.875v11.385c0 1.5-1.216 2.717-2.717 2.717h-8.11c-1.5 0-2.717-1.216-2.717-2.716v-11.385c0-7.018-1.3-13.335-3.865-18.775-.126-.269-.387-.449-.683-.474-.61-.043-.815.482-.89.558-1.663 2.409-5.005 3.046-7.447 1.419-7.045-4.694-19.244-14.717-21.794-29.095-.262-1.476.114-2.993 1.028-4.167-5.02 1.894-9.864 4.203-14.663 6.909-3.409 1.922-4.948 3.044-7.84 3.281-30.587 2.5-34 34.494-34.006 48.59-.002 4.597-.504 9.175-1.464 13.671-1.094 5.119-1.775 23.223-2.168 34.994 3.128-2.978 7.34-4.823 11.971-4.823z" fill="#73c3f9"/><path d="m110.195 229.44c-8.917-2.875-9.833-11.459-9.833-11.459s0-12.667 0-33.811 30.798-21.449 30.798-21.449l.528-.655c-.022-.014-.046-.021-.067-.035-7.045-4.695-19.244-14.717-21.794-29.095-.262-1.476.114-2.993 1.028-4.167-5.02 1.894-9.864 4.203-14.663 6.909-3.409 1.922-4.948 3.044-7.84 3.281-30.587 2.5-34 34.494-34.006 48.59-.002 4.597-.504 9.175-1.464 13.671-1.094 5.119-1.775 23.222-2.168 34.994 3.125-2.977 7.337-4.822 11.968-4.822h47.513z" fill="#4fabf7"/><path d="m145.64 149.611c.228.146.367.397.373.671.005.258.13.5.339.653.744.545 2.244 1.769 3.943 3.836.332.404.951.404 1.282.001 1.704-2.071 3.2-3.292 3.939-3.835.208-.154.333-.395.338-.654.005-.275.144-.526.373-.672 1.126-1.173 24.213-12.323 20.789-27.057-2.719-4.542-3.505-10.985-3.669-15.743-2.264 2.637-4.64 4.843-6.91 6.606-4.423 3.435-9.882 5.3-15.504 5.3s-11.081-1.866-15.504-5.3c-2.271-1.763-4.647-3.969-6.911-6.606-.164 4.76-.951 11.206-3.672 15.748-3.457 14.786 19.556 25.763 20.794 27.052z" fill="#fcad6d"/><path d="m150.933 118.717c-5.622 0-11.081-1.866-15.504-5.3-2.271-1.763-4.647-3.969-6.911-6.606-.164 4.76-.951 11.206-3.672 15.748-2.824 12.075 12.001 21.607 18.209 25.399l.524-.65c7.782-9.581 9.249-21.508 9.324-28.673-.653.052-1.31.082-1.97.082z" fill="#fd995b"/><path d="m146.342 149.92h-.652c.103.435.032.91-.243 1.309l-6.015 8.714c2.33 4.578 4.244 10.902 4.244 19.36v11.385c0 1.959 1.588 3.547 3.547 3.547h8.11c1.959 0 3.547-1.588 3.547-3.547v-11.385c-.001-21.662-12.538-29.383-12.538-29.383z" fill="#4fabf7"/><path d="m146.087 148.912-6.498-4.156c-15.029-10.174-15.298-18.759-13.406-23.749.705-1.86-1.116-3.659-2.948-2.886-6.514 2.751-10.869 7.383-13.018 10.113-1.076 1.367-1.511 3.133-1.208 4.846 2.599 14.662 14.936 24.834 22.15 29.641 2.834 1.889 6.655 1.165 8.59-1.638l6.803-9.855c.53-.765.318-1.815-.465-2.316z" fill="#9bd8f9"/><path d="m191.648 128.234c-2.149-2.73-6.504-7.362-13.018-10.113-1.832-.774-3.653 1.026-2.948 2.886 1.893 4.991 1.624 13.576-13.406 23.749l-6.498 4.156c-.783.501-.995 1.552-.467 2.317l6.803 9.855c1.935 2.803 5.756 3.526 8.59 1.638 7.214-4.807 19.551-14.979 22.15-29.641.306-1.714-.13-3.48-1.206-4.847z" fill="#9bd8f9"/><path d="m409.814 92.904c-.697-7.143-8.915-8.609-9.115-15.821-.003-.114 0-.226.001-.338h-84.623c.001.113.004.225.001.338-.2 7.212-8.418 8.678-9.115 15.821-.419 4.293 2.186 7.77 4.52 10.369s4.927 6.113 4.473 10.398c-.51 4.819-4.483 6.921-6.086 11.176-1.658 4.401-.307 10.223 2.185 13.643 2.492 3.421 5.848 5.007 9.086 6.495h74.492c3.239-1.488 6.595-3.074 9.086-6.495 2.492-3.42 3.843-9.242 2.185-13.643-1.603-4.255-5.576-6.357-6.086-11.176-.454-4.285 2.14-7.799 4.473-10.398 2.337-2.599 4.942-6.076 4.523-10.369z" fill="#2a428c"/><path d="m404.721 138.489c2.492-3.42 3.843-9.242 2.185-13.643-1.603-4.255-5.576-6.357-6.086-11.176-.1-.94-.046-1.841.113-2.706-14.261 2.943-19.238-13.651-19.238-13.651l-20.855-20.57h-44.764c.001.113.004.225.001.338-.2 7.212-8.418 8.678-9.115 15.821-.419 4.293 2.186 7.77 4.52 10.369s4.927 6.113 4.473 10.398c-.51 4.819-4.483 6.921-6.086 11.176-1.658 4.401-.307 10.223 2.185 13.643s5.848 5.007 9.086 6.495h74.492c3.242-1.487 6.598-3.073 9.089-6.494z" fill="#1c2e7a"/><g><path d="m327.291 140.787c2.306 2.833 4.87 6.696 7.401 10.747 3.363 5.381 8.265 9.454 12.739 12.342 6.605 4.263 15.082 4.263 21.687 0 4.473-2.887 9.375-6.96 12.739-12.342 2.627-4.203 5.288-8.147 7.659-11.005 1.165-1.404 2.834-2.208 4.581-2.321-4.584-1.815-7.826-3.948-9.388-4.858-8.082-5.885-7.859-11.839-7.859-17.61-4.401 3.935-11.898 8.927-18.156 9.231-6.258-.304-13.754-5.297-18.156-9.231 0 5.771.223 11.725-7.859 17.61-1.598.931-4.948 3.141-9.697 4.981-.086.033-.173.064-.259.097 1.749.125 3.415.942 4.568 2.359z" fill="#fcad6d"/><path d="m358.693 124.97c-6.258-.304-13.754-5.297-18.156-9.231 0 5.771.223 11.725-7.859 17.61-1.598.93-4.948 3.141-9.697 4.981-.086.033-.173.064-.259.097 1.75.126 3.415.943 4.568 2.36 2.306 2.833 4.87 6.696 7.401 10.747 2.374 3.798 5.516 6.931 8.73 9.469.897-1.419 1.856-2.66 2.883-3.688 9.887-9.887 12.281-23.46 12.672-32.371-.093.006-.189.021-.283.026z" fill="#fd995b"/></g><path d="m273.555 231.392h24.308c.475-6.329.972-21.185 1.425-25.664.23-2.281.481-4.197.74-5.809-16.043-1.69-24.908-12.583-28.394-18.044-.823 11.381-1.218 37.065-1.71 49.907 1.173-.251 2.386-.39 3.631-.39z" fill="#fcad6d"/><path d="m419.524 231.392h27.924c-.485-12.964-.879-38.249-1.695-49.517-3.486 5.461-12.351 16.354-28.394 18.044.259 1.611.51 3.528.74 5.809.452 4.479.95 19.335 1.425 25.664z" fill="#fcad6d"/><path d="m299.891 200.816c.045-.305.09-.611.136-.897.294-1.824 2.944-1.731 3.127.107.26 2.613.587 4.693.804 6.172.601 3.902 1.403 18.578 2.314 25.195h104.814c.907-6.603 1.706-21.258 2.307-25.149.001-.008.002-.015.003-.021.298-1.934.604-4.102.819-6.301.18-1.832 2.833-1.911 3.127-.094.062.382.123.783.184 1.201 15.253-2.064 24.211-11.931 28.314-17.887-.69-10.079-1.692-18.304-3.356-21.631-6.784-13.567-18.69-17.356-24.114-18.397-4.734-.797-14.551-3.279-21.65-5.785-2.579-.911-5.46-.144-7.207 1.96-2.371 2.858-5.033 6.803-7.659 11.006-3.363 5.381-8.265 9.454-12.738 12.342-6.605 4.263-15.082 4.263-21.687 0-4.473-2.887-9.375-6.96-12.739-12.342-2.531-4.05-5.095-7.914-7.401-10.746-1.731-2.127-4.618-2.912-7.211-2.017-6.829 2.355-16.199 4.763-21.066 5.583-5.425 1.042-17.331 4.83-24.115 18.397-1.651 3.301-2.649 11.425-3.339 21.395 4.003 5.88 12.948 15.91 28.333 17.909z" fill="#ffdd40"/><path d="m334.692 150.293c-2.531-4.05-5.095-7.914-7.401-10.746-1.731-2.127-4.618-2.911-7.211-2.017-6.829 2.355-16.199 4.763-21.066 5.583-5.425 1.042-17.331 4.83-24.115 18.397-1.651 3.301-2.649 11.425-3.339 21.395 4 5.883 12.945 15.913 28.331 17.911.045-.305.09-.611.136-.897.294-1.824 2.944-1.731 3.127.107.26 2.613.587 4.693.804 6.172.601 3.902 1.403 18.578 2.314 25.195h24.467c.532-17.604 2.882-56.102 13.219-71.201-3.399-2.609-6.76-5.89-9.266-9.899z" fill="#ffb332"/><path d="m455.154 377.888h-401.341v27.495c10.685 15.581 23.117 29.869 37.025 42.57h330.324c12.611-11.517 24.01-24.336 33.992-38.241z" fill="#816ae2"/><path d="m61.452 392.728v23.182c8.578 11.19 18.096 21.618 28.442 31.167h149.011c9.565 0 17.392-7.826 17.392-17.392v-36.957z" fill="#5c45bf"/><path d="m143.793 392.727h-82.34v23.182c8.578 11.19 18.096 21.618 28.442 31.167h53.898z" fill="#4a37b7"/><path d="m238.906 229.44h-181.43c-9.565 0-17.392 7.827-17.392 17.392v86.018c11.007 6.046 18.469 17.745 18.469 31.189v28.689h182.904c8.162 0 14.839-6.678 14.839-14.839v-131.057c.001-9.566-7.825-17.392-17.39-17.392z" fill="#7255ce"/><path d="m57.476 229.44c-9.565 0-17.392 7.827-17.392 17.392v86.018c11.007 6.046 18.469 17.745 18.469 31.189v28.689h85.239v-36.566h-24.538v-84.808c-22.774-13.628-9.06-41.914-9.06-41.914z" fill="#5c45bf"/><path d="m450.548 392.727h-194.25v36.957c0 9.565 7.826 17.392 17.392 17.392h148.416c10.346-9.548 19.865-19.977 28.443-31.167v-23.182z" fill="#7255ce"/><path d="m161.35 493.026c29.121 12.214 61.093 18.974 94.65 18.974 33.654 0 65.715-6.798 94.903-19.078l29.652-14.93c14.94-8.841 28.868-19.212 41.551-30.917-76.125 0-256.713 0-332.21 0 12.757 11.773 26.774 22.196 41.814 31.071z" fill="#816ae2"/><path d="m143.793 447.076c-20.868 0-39.342 0-53.898 0 12.757 11.773 26.774 22.196 41.814 31.071l12.084 6.066z" fill="#7255ce"/><path d="m273.689 229.44h180.835c9.565 0 17.392 7.827 17.392 17.392v86.018c-11.007 6.046-18.469 17.745-18.469 31.189v28.689h-182.31c-8.162 0-14.839-6.678-14.839-14.839v-131.057c-.001-9.566 7.826-17.392 17.391-17.392z" fill="#816ae2"/><path d="m23.599 327.098c-1.7.107-3.368.337-4.998.68 8.286 32.459 23.062 62.317 42.851 88.132v-53.32c0-20.4-17.174-36.788-37.853-35.492z" fill="#9181f2"/><path d="m493.398 327.778c-1.63-.343-3.298-.574-4.998-.68-20.678-1.295-37.853 15.093-37.853 35.492v53.32c19.79-25.815 34.566-55.673 42.851-88.132z" fill="#9181f2"/><path d="m322.956 59.048c.521-1.703 1.221-3.16 2.151-4.208.842-.949 1.305-2.057 1.34-3.205 0 0 3.7-16.859 17.728-17.733 0 0 9.514-1.814 17.911 11.971 6.965 11.435 23.444 15.311 32.092 13.24 1.892-1.202 5.084-1.888 7.291-1.098 0-10.045 0-14.138 0-15.638 0-.545 0-.749 0-.77 0-21.762-17.432-40.254-42.849-40.254-25.267 0-42.849 18.431-42.849 40.254v16.408c2.166-.776 5.281-.129 7.185 1.033z" fill="#2a428c"/><path d="m357.248 39.584c.043-.7.066-1.101.066-1.101s14.046-10.163 4.747-19.461c-9.297-9.297 13.978-14.436 13.985-14.437-5.21-2.076-11.068-3.233-17.426-3.233-25.267 0-42.849 18.431-42.849 40.254v16.408c2.167-.776 5.282-.128 7.185 1.033.521-1.703 1.221-3.16 2.151-4.208.842-.949 1.305-2.057 1.34-3.205 0 0 3.7-16.859 17.728-17.733-.001.001 6.239-1.187 13.073 5.683z" fill="#1c2e7a"/><path d="m400.512 56.975c-1.997-1.39-5.427-.089-6.824 1.115-.08.08-.152.157-.229.236 2.191 8.026.795 20.51.562 22.005-.012.051-.024.101-.036.152 4.126.282 7.15-2.179 7.15-5.803 0-1.19.106-2.377.315-3.549.681-3.817 4.064-10.672-.938-14.156z" fill="#fcad6d"/><path d="m323.225 80.363c-.853-4.954-1.565-14.905.14-21.473-.234-.261-.482-.526-.757-.8-1.397-1.203-4.827-2.505-6.824-1.115-5.003 3.484-1.619 10.339-.939 14.157.209 1.172.315 2.359.315 3.549 0 3.886 3.476 6.438 8.061 5.701 0 0 .004-.01.004-.014z" fill="#fd995b"/><path d="m362.085 44.707c-8.397-13.785-17.911-11.971-17.911-11.971-14.028.874-17.728 17.733-17.728 17.733-.034 1.149-.497 2.257-1.34 3.205-4.641 5.23-3.625 20.511-2.542 26.802 2.398 10.585 5.872 19.815 10.323 27.434 4.519 7.734 11.363 13.75 19.792 17.396 3.775 1.633 8.104 1.633 11.879 0 8.429-3.647 15.273-9.662 19.792-17.396 4.451-7.617 7.925-16.847 10.328-27.452.83-5.276 1.343-15.851-.721-22.583-8.611 2.143-24.871-1.674-31.872-13.168z" fill="#f9ba8f"/><path d="m357.573 107.911c-4.452-7.619-7.925-16.848-10.323-27.434-1.083-6.291-2.099-21.572 2.542-26.802.842-.949 1.305-2.057 1.34-3.205 0 0 1.498-6.8 6.182-11.987-6.859-6.944-13.139-5.746-13.139-5.746-14.028.874-17.728 17.733-17.728 17.733-.034 1.149-.497 2.257-1.34 3.205-4.641 5.23-3.625 20.511-2.542 26.802 2.398 10.585 5.872 19.815 10.323 27.434 4.519 7.734 11.363 13.75 19.792 17.396 3.775 1.633 8.104 1.633 11.879 0 2.254-.975 4.39-2.125 6.403-3.426-5.516-3.566-10.079-8.304-13.389-13.97z" fill="#fcad6d"/><path d="m143.437.467c-22.511 3.067-24.651 15.83-24.661 20.513-.002.982-.546 1.892-1.429 2.322-11.709 5.696-5.396 33.15-5.396 33.15 1.176.078 2.407.555 3.325.999.225-1.399.592-2.776 1.11-4.107.395-1.015.888-2.039 1.506-3.008 1.071-1.68 1.559-3.662 1.413-5.643-.421-5.727-.218-17.013 7.342-20.415 6.405-2.882 14.261-1.213 19.271.453 3.254 1.082 6.778 1.082 10.032 0 5.01-1.666 12.867-3.335 19.271-.453 7.538 3.392 7.762 14.623 7.346 20.366-.145 1.997.33 3.999 1.409 5.692.637.999 1.143 2.059 1.544 3.105.499 1.301.853 2.645 1.072 4.01 1.157-.561 2.811-1.171 4.226-.971.173-6.003.727-12.475.727-12.475 6.671-32.672-23.87-46.84-48.108-43.538z" fill="#2a428c"/><path d="m158.361.589c-4.995-.742-10.085-.781-14.924-.121-22.511 3.067-24.651 15.83-24.661 20.513-.002.982-.546 1.892-1.429 2.322-11.71 5.696-5.396 33.15-5.396 33.15 1.176.079 2.407.555 3.325.999.225-1.399.592-2.776 1.11-4.107.395-1.015.888-2.039 1.506-3.008 1.071-1.68 1.559-3.662 1.413-5.643-.421-5.727-.218-17.013 7.342-20.415 6.405-2.882 14.261-1.213 19.271.453.716.238 1.447.415 2.183.548-.046-.077-.086-.156-.133-.231-9.816-15.71 10.387-24.457 10.393-24.46z" fill="#1c2e7a"/><path d="m193.347 57.26c-1.753-1.607-5.246-.792-6.756.192.331 2.06.35 4.168.064 6.249l-1.782 12.979c0 1.046-.033 2.072-.093 3.081 4.345 1.311 6.504-2.59 6.867-5.268.156-1.152.412-2.288.767-3.396 1.156-3.611 5.326-9.811.933-13.837z" fill="#fcad6d"/><path d="m108.519 57.26c1.753-1.607 5.246-.792 6.756.192-.331 2.06-.35 4.168-.064 6.249l1.782 12.979c0 1.046.033 2.072.094 3.081-4.345 1.311-6.504-2.59-6.867-5.268-.157-1.152-.412-2.288-.767-3.396-1.157-3.611-5.327-9.811-.934-13.837z" fill="#fd995b"/><path d="m185.704 53.371c-1.268-3.307-3.232-4.677-2.94-8.712 1.051-14.496-4.225-19.104-7.462-20.561-6.348-2.856-14.062-1.335-19.415.445-3.195 1.063-6.714 1.063-9.908 0-5.353-1.779-13.065-3.302-19.415-.445-3.244 1.459-8.526 6.078-7.459 20.611.291 3.954-1.644 5.323-2.905 8.563-1.268 3.257-1.678 6.872-1.186 10.453l1.781 12.955c0 21.399 12.947 33.763 18.513 38.085 9.131 7.092 22.053 7.143 31.25 0 5.567-4.322 18.513-16.686 18.511-38.057l1.782-12.979c.488-3.547.091-7.129-1.147-10.358z" fill="#f9ba8f"/><g><path d="m158.361 114.763c-5.567-4.322-18.513-16.685-18.513-38.085l-1.781-12.955c-.492-3.581-.081-7.195 1.186-10.453 1.261-3.241 3.197-4.61 2.905-8.563-.9-12.246 2.709-17.452 5.808-19.66-.672-.128-1.338-.289-1.988-.505-5.353-1.779-13.065-3.302-19.415-.445-3.244 1.459-8.526 6.078-7.458 20.611.291 3.954-1.644 5.323-2.905 8.563-1.268 3.257-1.678 6.872-1.186 10.453l1.781 12.955c0 21.399 12.947 33.763 18.513 38.085 7.844 6.092 18.479 6.973 27.153 2.577-1.426-.723-2.804-1.571-4.1-2.578z" fill="#fcad6d"/></g><g><path d="m282.145 262.691c6.436-2.556 12.964-5.27 18.34-7.545.392.26.774.496 1.142.709 4.319 2.499 8.001 5.368 10.127 7.209 9.802 8.484 24.818 8.495 34.634 0 2.126-1.84 5.808-4.71 10.127-7.209.368-.213.75-.449 1.142-.709 5.376 2.275 11.904 4.989 18.34 7.545-18.098-28.432.652-79.619-10.867-103.136-10.086-20.591-26.584-20.638-33.191-19.713-1.902.266-3.835.266-5.737 0-6.607-.925-23.106-.878-33.191 19.713-11.517 23.516 7.233 74.703-10.866 103.136z" fill="#2a428c"/><path d="m326.204 139.842c-6.608-.925-23.106-.878-33.191 19.713-11.519 23.517 7.232 74.704-10.867 103.136 6.436-2.556 12.964-5.27 18.34-7.545.392.26.774.496 1.142.709 4.319 2.498 8.001 5.368 10.127 7.209 9.802 8.484 24.818 8.495 34.634 0 2.126-1.84 5.808-4.71 10.127-7.209.368-.213.75-.449 1.143-.709 5.376 2.275 11.904 4.989 18.34 7.545-5.083-7.986-7.259-17.767-8.016-28.226-10.819.952-12.769-8.894-12.769-8.894s-39.52-15.661-36.647-18.534 16.338-22.35 4.597-38.849 3.04-28.346 3.04-28.346z" fill="#1c2e7a"/><path d="m367.785 191.614c-3.326-1.79-6.162-.985-7.907-.049 1.605 10.077 1.164 17.79-.302 23.648 7.865 1.39 8.255-7.523 8.99-10.085.78-2.721 4.782-10.521-.781-13.514z" fill="#fcad6d"/><path d="m298.266 191.565c-1.744-.936-4.581-1.74-7.907.049-5.563 2.993-1.561 10.793-.781 13.514.735 2.562 1.125 11.475 8.99 10.085-1.466-5.858-1.907-13.57-.302-23.648z" fill="#fd995b"/><g fill="#fcad6d"><path d="m402.088 362.217-3.279-47.592h-2.242c-.727.55-1.627.884-2.612.884h-18.695c-2.404 0-4.352 1.948-4.352 4.352v48.202c.924 1.984 1.499 4.154 1.652 6.424h18.185c6.637.001 11.864-5.654 11.343-12.27z"/><path d="m256.056 362.217 3.279-47.592h2.242c.727.55 1.627.884 2.612.884h18.695c2.404 0 4.352 1.948 4.352 4.352v48.202c-.924 1.984-1.499 4.154-1.652 6.424h-18.186c-6.636.001-11.863-5.654-11.342-12.27z"/><path d="m301.628 255.855c4.319 2.499 8.001 5.368 10.127 7.209 9.802 8.484 24.818 8.495 34.634 0 2.126-1.84 5.808-4.71 10.127-7.209.682-.395 1.412-.869 2.168-1.429-1.846-.779-3.577-1.515-5.135-2.181-5.022-2.148-8.275-7.083-8.275-12.546v-6.634c-1.453 1.038-2.671 2.02-3.536 2.769-7.172 6.207-18.155 6.211-25.332 0-.865-.749-2.083-1.73-3.536-2.769v6.634c0 5.462-3.253 10.397-8.275 12.546-1.558.666-3.289 1.402-5.135 2.181.756.56 1.485 1.034 2.168 1.429z"/></g><path d="m316.406 235.834c-.865-.749-2.083-1.73-3.536-2.769v6.634c0 5.462-3.253 10.398-8.275 12.546-1.557.666-3.289 1.402-5.135 2.181.756.56 1.486 1.034 2.168 1.429 4.319 2.498 8.001 5.368 10.127 7.209 2.413 2.089 5.144 3.658 8.034 4.719.927-.438 1.501-.651 1.501-.651 6.929-6.928 8.893-18.216 9.294-26.705-5.03.383-10.191-1.142-14.178-4.593z" fill="#fd995b"/><path d="m398.908 285.355c-.789-9.508-6.98-17.696-15.897-21.087-8.482-3.226-17.995-7.162-25.352-10.275-.392.26-.774.496-1.142.709-4.319 2.499-8.001 5.369-10.127 7.209-9.816 8.495-24.831 8.483-34.634 0-2.126-1.84-5.808-4.71-10.127-7.209-.368-.213-.75-.449-1.142-.709-7.357 3.113-16.87 7.049-25.352 10.275-8.918 3.391-15.109 11.579-15.898 21.087-.574 6.922-1.132 18.738-1.307 26.776-.053 2.438 1.913 4.439 4.351 4.439h18.928c2.403 0 4.352 1.948 4.352 4.352v48.795h.407c3-5.159 8.573-8.637 14.97-8.637s11.971 3.478 14.97 8.637h26.329c2.999-5.159 8.573-8.637 14.97-8.637s11.97 3.478 14.97 8.637h.64v-48.795c0-2.404 1.949-4.352 4.352-4.352h18.695c2.439 0 4.404-2.001 4.352-4.439-.176-8.038-.734-19.854-1.308-26.776z" fill="#fc90ce"/><path d="m321.306 267.116c-3.449-1.036-6.72-2.756-9.55-5.205-2.127-1.84-5.808-4.71-10.127-7.209-.368-.213-.75-.449-1.142-.709-7.357 3.113-16.87 7.049-25.352 10.275-8.918 3.391-15.109 11.58-15.897 21.087-.574 6.922-1.132 18.738-1.307 26.776-.053 2.438 1.913 4.439 4.351 4.439h18.928c2.403 0 4.352 1.949 4.352 4.352v48.795h.407c3-5.159 8.573-8.637 14.97-8.637.881 0 1.744.072 2.589.199l1.845-2.3s0-58.552 0-72.245 15.92-19.602 15.92-19.602c.003-.006.007-.011.013-.016z" fill="#fb7ac0"/><path d="m315.908 369.717h26.329v45.332h-26.329z" fill="#73c3f9"/><path d="m329.498 392.382h-.851c-7.035 0-12.739-5.703-12.739-12.739v35.405h26.329v-35.405c-.001 7.036-5.704 12.739-12.739 12.739z" fill="#4fabf7"/><path d="m375.947 345.593h-28.525c-5.813 0-10.569 4.756-10.569 10.569v7.758c0 5.813 4.756 10.569 10.569 10.569h28.525c5.813 0 10.569-4.756 10.569-10.569v-7.758c0-5.813-4.756-10.569-10.569-10.569z" fill="#fcad6d"/><path d="m282.197 345.593h28.525c5.813 0 10.569 4.756 10.569 10.569v7.758c0 5.813-4.756 10.569-10.569 10.569h-28.525c-5.813 0-10.569-4.756-10.569-10.569v-7.758c0-5.813 4.756-10.569 10.569-10.569z" fill="#fcad6d"/><path d="m360.001 190.466c-.918-5.362-2.704-9.948-8.158-13.1-1.511-.873-3.105-1.66-4.699-2.336-5.269-2.237-9.563-3.802-13.236-7.954-2.464-2.788-6.967-3.09-9.807.151-3.61 4.108-8.069 5.666-13.103 7.804-1.596.678-3.191 1.465-4.699 2.336-5.487 3.171-7.249 7.792-8.158 13.1-4.627 27.032 5.242 37.482 10.856 40.729 3.159 1.827 5.852 3.927 7.408 5.273 7.17 6.205 18.153 6.213 25.332 0 1.555-1.346 4.249-3.445 7.408-5.273 5.614-3.248 15.483-13.697 10.856-40.73z" fill="#f9ba8f"/><path d="m337.691 235.467c-1.555-1.635-4.249-4.186-7.408-6.406-5.613-3.946-15.482-16.641-10.855-49.485.599-4.248 1.575-8.129 3.735-11.388-3.435 3.389-7.554 4.885-12.164 6.842-1.597.678-3.191 1.465-4.699 2.336-5.487 3.171-7.249 7.792-8.158 13.1-4.627 27.033 5.242 37.482 10.855 40.729 3.159 1.827 5.852 3.927 7.408 5.273 6.673 5.775 16.645 6.176 23.783 1.195-.869-.646-1.709-1.367-2.497-2.196z" fill="#fcad6d"/></g><path d="m300.109 358.979c-9.316.439-16.483 8.464-16.483 17.79v90.303.029c.004 1.923-.589 3.798-1.83 5.267l-2.435 2.881c-5.836 6.904-4.962 17.327 1.942 23.163 6.904 5.836 17.327 4.962 23.163-1.941l9.937-11.756c2.507-2.966 3.767-6.579 3.847-10.201.022-97.874.017-95.707.018-98.233-.001-9.845-8.212-17.77-18.159-17.302z" fill="#f9ba8f"/><path d="m283.626 467.101c.004 1.923-.589 3.798-1.83 5.267l-2.435 2.881c-5.836 6.904-4.962 17.327 1.942 23.163 6.904 5.836 17.327 4.962 23.163-1.941l9.937-11.756c2.507-2.966 3.767-6.579 3.847-10.201.001-5.362.002-10.406.003-15.185-17.168 17.148-34.627-.014-34.627-.014v7.757z" fill="#fcad6d"/><path d="m378.801 475.249-2.436-2.881c-1.241-1.469-1.834-3.344-1.83-5.267 0-.009 0-.019 0-.029v-90.303c0-9.327-7.167-17.352-16.483-17.79-9.947-.468-18.158 7.458-18.158 17.301.001 2.525-.008.303.038 98.766.186 3.442 1.442 6.848 3.827 9.669l6.999 8.28c10.346-4.343 20.325-9.385 29.892-15.05-.516-.942-1.13-1.846-1.849-2.696z" fill="#f9ba8f"/><path d="m378.801 475.249-2.436-2.881c-1.241-1.469-1.834-3.344-1.83-5.267 0-.009 0-.019 0-.029v-7.757c-18.538 18.538-34.61 0-34.61 0 .002 4.94.005 10.166.007 15.731.186 3.442 1.442 6.848 3.827 9.669l6.999 8.28c10.346-4.343 20.325-9.385 29.892-15.05-.516-.942-1.13-1.846-1.849-2.696z" fill="#fcad6d"/><g><g fill="#fcad6d"><path d="m256.263 362.217-3.279-47.592h-2.242c-.727.55-1.627.884-2.612.884h-18.695c-2.404 0-4.352 1.949-4.352 4.352v48.202c.924 1.984 1.499 4.154 1.652 6.424h18.186c6.636.001 11.863-5.654 11.342-12.27z"/><path d="m110.231 362.217 3.279-47.592h2.242c.727.55 1.627.884 2.612.884h18.695c2.403 0 4.352 1.949 4.352 4.352v48.202c-.924 1.984-1.499 4.154-1.652 6.424h-18.186c-6.636.001-11.863-5.654-11.342-12.27z"/><path d="m155.803 255.855c4.319 2.499 8.001 5.368 10.128 7.209 9.802 8.484 24.818 8.495 34.634 0 2.127-1.84 5.809-4.71 10.128-7.209.682-.395 1.412-.869 2.168-1.429-1.846-.779-3.577-1.515-5.135-2.181-5.022-2.148-8.275-7.083-8.275-12.546v-6.634c-1.453 1.038-2.671 2.02-3.536 2.769-7.172 6.207-18.155 6.211-25.332 0-.865-.749-2.083-1.73-3.536-2.769v6.634c0 5.462-3.253 10.397-8.275 12.546-1.558.666-3.289 1.402-5.135 2.181.754.56 1.483 1.034 2.166 1.429z"/></g><path d="m184.453 240.439c-4.933.299-9.965-1.225-13.872-4.605-.865-.749-2.083-1.73-3.536-2.769v6.634c0 5.462-3.253 10.398-8.275 12.546-1.558.666-3.289 1.402-5.135 2.181.756.56 1.485 1.034 2.168 1.429 4.319 2.499 8.001 5.368 10.127 7.209 2.285 1.978 4.86 3.475 7.58 4.532 1.198-.322 1.956-.461 1.956-.461 7.764-7.765 9.176-18.775 8.987-26.696z" fill="#fd995b"/><path d="m253.083 285.355c-.789-9.508-6.98-17.696-15.897-21.087-8.482-3.226-17.995-7.162-25.352-10.275-.392.26-.774.496-1.142.709-4.319 2.499-8.001 5.369-10.128 7.209-9.816 8.495-24.831 8.483-34.634 0-2.127-1.84-5.809-4.71-10.128-7.209-.368-.213-.75-.449-1.142-.709-7.357 3.113-16.869 7.049-25.352 10.275-8.918 3.391-15.109 11.579-15.898 21.087-.574 6.922-1.132 18.738-1.307 26.776-.053 2.438 1.913 4.439 4.352 4.439h18.928c2.404 0 4.352 1.948 4.352 4.352v48.794h.407c2.999-5.159 8.573-8.636 14.97-8.636s11.97 3.478 14.97 8.636h26.329c2.999-5.159 8.573-8.636 14.97-8.636s11.97 3.478 14.97 8.636h.64v-48.794c0-2.404 1.949-4.352 4.352-4.352h18.695c2.439 0 4.404-2.001 4.351-4.439-.174-8.038-.732-19.854-1.306-26.776z" fill="#ff4155"/><path d="m175.483 267.116c-3.45-1.036-6.722-2.756-9.553-5.206-2.126-1.84-5.808-4.71-10.127-7.209-.368-.213-.75-.449-1.143-.709-7.356 3.113-16.869 7.049-25.352 10.275-8.918 3.391-15.109 11.58-15.898 21.087-.574 6.922-1.132 18.738-1.307 26.776-.053 2.438 1.913 4.439 4.351 4.439h18.929c2.403 0 4.352 1.949 4.352 4.352v48.795h.407c2.999-5.159 8.573-8.637 14.97-8.637.592 0 1.175.04 1.752.098 0-28.099 0-69.133 0-77.582 0-13.106 18.601-16.461 18.601-16.461.007-.005.012-.012.018-.018z" fill="#e80054"/><path d="m170.083 369.716h26.329v45.332h-26.329z" fill="#ffdd40"/><path d="m183.672 392.382h-.851c-7.035 0-12.739-5.703-12.739-12.739v35.405h26.329v-35.405c0 7.036-5.703 12.739-12.739 12.739z" fill="#ffb332"/><path d="m230.122 345.593h-28.525c-5.813 0-10.569 4.756-10.569 10.569v7.758c0 5.813 4.756 10.569 10.569 10.569h28.525c5.813 0 10.569-4.756 10.569-10.569v-7.758c0-5.813-4.756-10.569-10.569-10.569z" fill="#fcad6d"/><path d="m136.372 345.593h28.525c5.813 0 10.569 4.756 10.569 10.569v7.758c0 5.813-4.756 10.569-10.569 10.569h-28.525c-5.813 0-10.569-4.756-10.569-10.569v-7.758c0-5.813 4.756-10.569 10.569-10.569z" fill="#fcad6d"/><path d="m211.704 155.156c-1.162-.493-2.149-1.317-2.879-2.347-4.009-5.655-19.361-22.774-49.459-6.241-20.306 11.154-18.618 35.197-16.135 47.633.364-.622.91-1.161 1.694-1.583 4.211-2.264 7.115.268 7.975.522.345-1.165.259-7.463 6.095-12.056 4.813-3.786 11.902-7.964 18.35-6.361 8.079 2.008 15.505 1.519 20.313.756 1.275-.204 2.488.621 2.757 1.878 1.421 6.645 5.665 11.538 12.276 14.15.155.061.283.193.351.361l.468 1.161c.668-.194 3.583-2.642 7.732-.41 1.283.69 1.931 1.681 2.179 2.842 2.06-10.373 4.574-33.394-11.717-40.305z" fill="#2a428c"/><path d="m195.689 142.09c-8.187-3.569-20.116-4.426-36.323 4.477-20.306 11.154-18.618 35.197-16.135 47.633.364-.622.91-1.161 1.694-1.583 4.211-2.264 7.115.268 7.975.522.345-1.165.259-7.463 6.095-12.056 4.813-3.786 11.902-7.964 18.35-6.361 1.382.343 2.742.609 4.076.817-.176-.418-.362-.838-.568-1.262-11.22-23.093 14.832-32.185 14.836-32.187z" fill="#1c2e7a"/><path d="m221.787 191.602c-3.325-1.789-6.161-.985-7.905-.049 1.605 10.075 1.164 17.785-.302 23.642 7.863 1.39 8.253-7.521 8.988-10.082.78-2.72 4.78-10.519-.781-13.511z" fill="#fcad6d"/><path d="m152.284 191.553c-1.744-.936-4.58-1.74-7.905.049-5.562 2.992-1.561 10.79-.781 13.511.735 2.561 1.125 11.472 8.988 10.082-1.466-5.857-1.906-13.567-.302-23.642z" fill="#fd995b"/><path d="m214.226 191.83c-.098-.628-.521-1.163-1.112-1.397-4.919-1.943-9.96-5.775-11.573-13.318-.397-1.859-2.188-3.074-4.065-2.776-4.23.673-11.719 1.286-19.854-.736-6.801-1.69-14.102 2.452-19.34 6.574-3.218 2.532-5.411 6.172-6.109 10.206-.004.024-.008.047-.012.071-4.626 27.026 5.241 37.473 10.853 40.719 3.158 1.827 5.851 3.926 7.406 5.271 7.168 6.204 18.148 6.212 25.326 0 1.555-1.346 4.247-3.444 7.406-5.271 5.515-3.19 15.136-13.341 11.074-39.343z" fill="#f9ba8f"/><path d="m190.727 236.131c-1.555-1.436-4.247-3.677-7.406-5.627-5.612-3.465-15.479-14.617-10.853-43.465.004-.025.008-.05.012-.076.698-4.307 2.891-8.192 6.109-10.895.717-.602 1.475-1.205 2.263-1.792-1.061-.182-2.139-.403-3.23-.674-6.801-1.69-14.102 2.452-19.34 6.574-3.218 2.532-5.411 6.172-6.109 10.206-.004.024-.008.047-.012.071-4.626 27.026 5.241 37.473 10.853 40.719 3.158 1.827 5.851 3.926 7.406 5.271 6.422 5.558 15.902 6.139 22.968 1.734-.931-.591-1.823-1.271-2.661-2.046z" fill="#fcad6d"/></g><path d="m154.274 358.979c-9.316.439-16.483 8.464-16.483 17.79v90.303.029c.004 1.923-.589 3.798-1.83 5.267l-2.436 2.881c-.756.894-1.394 1.849-1.926 2.843 9.565 5.649 19.542 10.673 29.885 15.002l7.083-8.379c2.507-2.966 3.767-6.58 3.847-10.201.022-97.875.017-95.707.018-98.233 0-9.844-8.212-17.77-18.158-17.302z" fill="#f9ba8f"/><path d="m137.791 467.101c.004 1.923-.589 3.798-1.83 5.267l-2.436 2.881c-.756.894-1.394 1.849-1.926 2.843 9.565 5.649 19.542 10.673 29.885 15.002l7.083-8.379c2.507-2.966 3.767-6.58 3.847-10.201.001-5.367.002-10.416.003-15.199-17.306 17.306-34.626 0-34.626 0v7.757c-.001.009-.001.019 0 .029z" fill="#fcad6d"/><path d="m232.966 475.249-2.435-2.881c-1.241-1.469-1.834-3.344-1.83-5.267 0-.01 0-.019 0-.029v-90.303c0-9.327-7.167-17.352-16.483-17.79-9.947-.468-18.158 7.457-18.158 17.301.001 2.525-.008.303.038 98.766.186 3.442 1.442 6.848 3.827 9.669l9.937 11.756c5.836 6.904 16.259 7.777 23.163 1.941 6.903-5.836 7.776-16.259 1.941-23.163z" fill="#f9ba8f"/><path d="m228.7 459.314c-15.316 19.557-33.799.869-34.61.032.002 4.931.005 10.147.007 15.699.186 3.442 1.442 6.848 3.827 9.669l9.937 11.756c5.836 6.904 16.259 7.777 23.163 1.941 6.904-5.836 7.778-16.259 1.942-23.163l-2.435-2.881c-1.241-1.469-1.834-3.344-1.83-5.267 0-.009 0-.019 0-.029v-7.757z" fill="#fcad6d"/><path d="m417.344 199.827c.062.382.123.783.184 1.2 5.381-.728 9.963-2.438 13.84-4.594-1.405-6.798-4.068-12.159-6.885-16.224-3.145-4.538-10.267-2.295-10.267 3.226v16.486c.181-1.832 2.833-1.911 3.128-.094z" fill="#ffb332"/><path d="m432.403 206.829c0-4.115-.458-7.839-1.217-11.207-3.846 2.1-8.42 3.728-13.828 4.297.259 1.611.51 3.528.74 5.809.452 4.479.95 19.336 1.425 25.664h12.88c0-5.371 0-13.291 0-24.563z" fill="#fd995b"/></g></svg>