<svg height="512" viewBox="0 0 512 512" width="512" xmlns="http://www.w3.org/2000/svg"><g id="Wheat_Bag" data-name="Wheat Bag"><g id="Flat"><path d="m448 464c0 19.08-20.05 31.22-37.44 24.37-148.16 32.12-239.3 29-373.12 0-17.64 6.94-37.44-5.34-37.44-24.37 0-4.41 13.41-21.79 15.39-25.51-2.25-10.43-7.39-43.37-7.39-126.49 0-31.57 16.66-122.13 22.32-152h387.36c5.66 29.87 22.32 120.43 22.32 152 0 83.12-5.14 116.06-7.39 126.49 2.05 3.72 15.39 21.09 15.39 25.51z" fill="#a1887f"/><path d="m432.61 438.49c2.25-10.43 7.39-43.37 7.39-126.49 0-31.57-16.66-122.13-22.32-152h-51.538c-19.3 161.385-134.688 293.247-287.32 336.734 112.474 20.9 199.342 20.339 331.738-8.364 17.39 6.85 37.44-5.29 37.44-24.37 0-4.42-13.34-21.79-15.39-25.51z" fill="#9c7b70"/><path d="m395.782 136h-343.563a3.1 3.1 0 0 1 -2.5-4.947l.035-.043c29.456-36.88 125.156-131.01 174.246-131.01 45.54 0 144.95 94.34 174.25 131.01l.035.043a3.1 3.1 0 0 1 -2.503 4.947z" fill="#ffead2"/><path d="m398.285 131.053-.035-.043c-19.494-24.4-70.022-74.317-115.073-105a184.187 184.187 0 0 1 -75.47 109.99h188.075a3.1 3.1 0 0 0 2.503-4.947z" fill="#faddc3"/><path d="m424 208h-400a24 24 0 0 1 0-48h400a24 24 0 0 1 0 48z" fill="#9c7b70"/><circle cx="184" cy="48" fill="#fff7f0" r="16"/><circle cx="208" cy="80" fill="#fff7f0" r="8"/><circle cx="48" cy="240" fill="#bcaaa4" r="16"/><circle cx="72" cy="272" fill="#bcaaa4" r="8"/><path d="m424 176h-400a24 24 0 0 1 0-48h400a24 24 0 0 1 0 48z" fill="#a1887f"/><g fill="#f5d3b8"><circle cx="184" cy="72" r="8"/><circle cx="208" cy="40" r="8"/><circle cx="224" cy="64" r="8"/><circle cx="248" cy="48" r="8"/><circle cx="264" cy="80" r="8"/><circle cx="296" cy="104" r="8"/><circle cx="240" cy="104" r="8"/><circle cx="200" cy="104" r="8"/><circle cx="152" cy="104" r="8"/><path d="m346.086 219.212a8 8 0 0 1 -10.786-3.412l-25.832-49.686a8 8 0 0 1 14.2-7.381l25.832 49.687a8 8 0 0 1 -3.414 10.792z"/><path d="m260.91 263.5a8 8 0 0 1 -10.789-3.408l-25.832-49.692a8 8 0 0 1 14.2-7.38l25.831 49.686a8 8 0 0 1 -3.41 10.794z"/><path d="m292.427 220.06a8 8 0 0 1 -10.788-3.408l-33.213-63.882a8 8 0 1 1 14.2-7.381l33.213 63.882a8 8 0 0 1 -3.412 10.789z"/><path d="m443.728 511.078a8 8 0 0 1 -10.788-3.407l-44.283-85.177 14.2-7.38 44.283 85.176a8 8 0 0 1 -3.412 10.788z"/><path d="m311.665 269.687c-1.036-.385-25.517-9.676-36.962-31.689s-4.987-47.39-4.707-48.459a7.876 7.876 0 0 1 10.333-5.373c1.037.385 25.518 9.677 36.962 31.69s4.988 47.389 4.708 48.459a7.889 7.889 0 0 1 -10.334 5.372z"/></g><path d="m345.29 200.526c-2.507-2.477-5.758-4.021-9.09-2.871-2.419.835-33.745 14.494-36.076 37.254-20.522-11.155-48.93 6.5-51.192 8.141-2.853 2.067-3.449 5.612-2.87 9.087 4.3 25.856 48.962 65.757 79.84 49.7 6.8-3.534 7.314-3.805 14.185-7.377 26.545-13.8 23.847-75.511 5.203-93.934z" fill="#faddc3"/><path d="m367.666 226.026c-11.666 5.974-41.616 29.902-39.728 62.383-28.917-22.038-62.9-9.106-73.885-3.315a8 8 0 0 0 -3.388 10.725c.6 1.168 14.969 28.7 41.664 37.136 26.241 8.289 53.335-5.372 55.353-6.421l.038-.02.045-.023.038-.02c2.021-1.051 28.765-15.381 37.053-41.621 8.432-26.7-5.853-54.275-6.465-55.436a8 8 0 0 0 -10.725-3.388z" fill="#f5d3b8"/><path d="m386.118 261.517c-11.442 5.862-41.666 30.071-39.729 62.382-28.9-22.023-63.032-9.039-73.885-3.315a8 8 0 0 0 -3.387 10.725c.6 1.168 14.968 28.7 41.664 37.136 26.241 8.289 53.335-5.372 55.353-6.421l.037-.02.046-.023.037-.02c2.021-1.051 28.765-15.381 37.053-41.621 8.432-26.695-5.852-54.275-6.464-55.436a8 8 0 0 0 -10.725-3.387z" fill="#faddc3"/><path d="m404.569 297.006c-10.448 5.354-41.826 30.826-39.729 62.383-22.848-19.192-66.594-7.16-73.884-3.315a8 8 0 0 0 -3.388 10.725c.6 1.168 14.968 28.7 41.664 37.136 26.241 8.288 53.335-5.372 55.353-6.422l.038-.019.045-.024.037-.019c2.021-1.051 28.765-15.381 37.053-41.621 8.433-26.7-5.852-54.275-6.464-55.436a8 8 0 0 0 -10.725-3.388z" fill="#f5d3b8"/><path d="m423.02 332.5c-11.843 6.069-41.507 29.961-39.728 62.383-22.882-19.218-66.595-7.16-73.885-3.315a8 8 0 0 0 -3.388 10.725c.6 1.168 14.969 28.7 41.664 37.136 26.241 8.289 53.335-5.372 55.353-6.421l.038-.02.045-.023.038-.02c2.021-1.051 28.764-15.381 37.053-41.621 8.432-26.695-5.853-54.275-6.465-55.436a8 8 0 0 0 -10.725-3.388z" fill="#faddc3"/><path d="m488.043 208a8 8 0 0 1 -8-8v-56a8 8 0 0 1 16 0v56a8 8 0 0 1 -8 8z" fill="#faddc3"/><path d="m392.043 208a8 8 0 0 1 -8-8v-56a8 8 0 0 1 16 0v56a8 8 0 0 1 -8 8z" fill="#faddc3"/><path d="m440.043 184a8 8 0 0 1 -8-8v-72a8 8 0 0 1 16 0v72a8 8 0 0 1 -8 8z" fill="#faddc3"/><path d="m440.043 512a8 8 0 0 1 -8-8v-96h16v96a8 8 0 0 1 -8 8z" fill="#f5d3b8"/><path d="m434.219 236.906c-.742-.819-18.177-20.356-18.177-45.166s17.435-44.347 18.177-45.167a7.876 7.876 0 0 1 11.647 0c.742.82 18.177 20.357 18.177 45.167s-17.435 44.347-18.177 45.166a7.889 7.889 0 0 1 -11.647 0z" fill="#faddc3"/><path d="m495.956 191.053c-1.081-3.354-3.254-6.223-6.74-6.74-2.532-.375-36.627-2.706-49.194 16.413-13.062-19.364-46.413-16.8-49.176-16.391-3.484.517-5.648 3.388-6.738 6.738-8.108 24.927 13.109 80.927 47.912 80.927h15.989c29.918 0 55.991-56 47.947-80.947z" fill="#ffead2"/><path d="m504.047 224c-13.105-.077-50.717 7.333-64.026 37.023-15.49-32.891-51.611-37.095-64.021-37.023a8 8 0 0 0 -7.953 7.953c-.008 1.313.04 32.372 19.836 52.168 19.459 19.459 49.8 19.836 52.074 19.836h.136c2.278 0 32.617-.378 52.074-19.836 19.8-19.8 19.844-50.855 19.837-52.168a8 8 0 0 0 -7.957-7.953z" fill="#faddc3"/><path d="m504.047 264c-12.856-.076-50.839 7.461-64.026 37.023-15.479-32.869-51.756-37.095-64.021-37.023a8 8 0 0 0 -7.953 7.953c-.008 1.313.04 32.372 19.836 52.168 19.459 19.458 49.8 19.836 52.074 19.836h.136c2.278 0 32.617-.378 52.074-19.836 19.8-19.8 19.844-50.855 19.837-52.168a8 8 0 0 0 -7.957-7.953z" fill="#ffead2"/><path d="m504.047 304c-11.739-.069-51.33 8.057-64.026 37.024-11.421-27.568-55.783-37.072-64.021-37.024a8 8 0 0 0 -7.953 7.954c-.008 1.312.04 32.371 19.836 52.167 19.459 19.459 49.8 19.836 52.074 19.836h.136c2.278 0 32.617-.378 52.074-19.836 19.8-19.8 19.844-50.855 19.837-52.167a8 8 0 0 0 -7.957-7.954z" fill="#faddc3"/><path d="m504.047 344c-13.307-.079-50.648 7.435-64.026 37.023-11.437-27.606-55.783-37.071-64.021-37.023a8 8 0 0 0 -7.953 7.953c-.008 1.312.04 32.371 19.836 52.167 19.459 19.459 49.8 19.837 52.074 19.837h.136c2.278 0 32.617-.379 52.074-19.837 19.8-19.8 19.844-50.855 19.837-52.167a8 8 0 0 0 -7.957-7.953z" fill="#ffead2"/><path d="m505.709 344.187c-26.234 38.394-73.734 61.081-122.4 54.73a55.223 55.223 0 0 0 4.567 5.2c19.459 19.459 49.8 19.837 52.074 19.837h.136c2.278 0 32.617-.379 52.074-19.837 19.8-19.8 19.844-50.855 19.837-52.167a8 8 0 0 0 -6.288-7.763z" fill="#faddc3"/><circle cx="388" cy="364" fill="#fff7f0" r="12"/><circle cx="416" cy="376" fill="#fff7f0" r="8"/><circle cx="404" cy="204" fill="#fff7f0" r="12"/><circle cx="432" cy="216" fill="#fff7f0" r="8"/><circle cx="80" cy="152" fill="#bcaaa4" r="16"/><circle cx="120" cy="152" fill="#bcaaa4" r="8"/></g></g></svg>