<svg width="150" height="150" viewBox="0 0 150 150" fill="none" xmlns="http://www.w3.org/2000/svg">
<path d="M109.616 0H40.3837C36.6492 0 33.6208 3.02842 33.6208 6.76289V51.7242V72.414V143.237C33.6208 146.972 36.6492 150 40.3837 150H109.619C113.351 150 116.379 146.972 116.379 143.237V72.4137V51.7239V6.76289C116.379 3.02842 113.351 0 109.616 0Z" fill="#2C353F"/>
<path d="M116.379 15.5174H33.6208V124.138H116.379V15.5174Z" fill="#659ED8"/>
<path d="M87.9311 10.3447H62.0689C60.6413 10.3447 59.4826 9.18605 59.4826 7.75842C59.4826 6.33078 60.6413 5.17209 62.0689 5.17209H87.9311C89.3587 5.17209 90.5174 6.33078 90.5174 7.75842C90.5174 9.18605 89.3587 10.3447 87.9311 10.3447Z" fill="#C4CED3"/>
<path d="M106.034 10.3447H103.448C102.021 10.3447 100.862 9.18605 100.862 7.75842C100.862 6.33078 102.021 5.17209 103.448 5.17209H106.034C107.462 5.17209 108.621 6.33078 108.621 7.75842C108.621 9.18605 107.462 10.3447 106.034 10.3447Z" fill="#C4CED3"/>
<path d="M78.2095 142.241H71.7879C69.2766 142.241 67.2413 140.206 67.2413 137.692V136.443C67.2413 133.932 69.2766 131.896 71.7905 131.896H78.2121C80.7234 131.896 82.7587 133.932 82.7587 136.446V137.695C82.7587 140.206 80.7231 142.241 78.2095 142.241Z" fill="#C4CED3"/>
</svg>
