<svg width="978" height="687" viewBox="0 0 978 687" fill="none" xmlns="http://www.w3.org/2000/svg">
<path d="M500.917 118.39C500.917 150.925 512.585 179.087 535.601 202.107C558.617 225.123 586.783 236.791 619.318 236.791H619.374C651.868 236.779 680.015 225.112 703.031 202.107C726.051 179.087 737.715 150.925 737.715 118.39C737.715 85.866 726.051 57.7003 703.031 34.6839C680.026 11.6751 651.879 0.0112513 619.374 0H619.318C586.794 0 558.629 11.6676 535.601 34.6839C512.585 57.7003 500.917 85.866 500.917 118.39Z" fill="#FFBB85"/>
<path d="M411.151 407.034C411.151 432.702 419.315 453.483 435.397 468.788C451.291 483.914 472.312 491.576 497.872 491.576H734.569C760.128 491.576 781.149 483.914 797.032 468.788C813.125 453.472 821.278 432.694 821.278 407.034C821.278 397.163 820.952 387.397 820.299 378.006C819.636 368.404 818.293 357.956 816.313 346.933C814.318 335.821 811.752 325.316 808.681 315.715C805.493 305.776 801.18 295.972 795.843 286.581C790.3 276.834 783.789 268.343 776.491 261.352C768.84 254.035 759.486 248.158 748.674 243.875C737.899 239.615 725.954 237.455 713.172 237.455C708.158 237.455 703.301 239.506 693.94 245.604C688.082 249.426 681.331 253.776 673.879 258.539C667.443 262.642 658.727 266.49 647.952 269.967C638.483 273.031 628.87 274.741 619.374 275.038C618.328 275.075 617.281 275.094 616.235 275.094C605.689 275.094 595.023 273.365 584.506 269.967C573.731 266.49 565.004 262.642 558.572 258.539C551.041 253.728 544.291 249.381 538.519 245.616C529.15 239.506 524.301 237.455 519.275 237.455C506.505 237.455 494.56 239.615 483.778 243.875C472.965 248.158 463.611 254.046 455.968 261.352C448.659 268.343 442.148 276.834 436.608 286.581C431.268 295.98 426.947 305.776 423.771 315.703C420.695 325.316 418.123 335.821 416.127 346.941C414.158 357.975 412.812 368.423 412.152 377.998C411.488 387.359 411.162 397.125 411.151 407.034V407.034Z" fill="#6AA9FF"/>
<path d="M619.318 236.791H619.374V0H619.318C586.794 0 558.629 11.6676 535.601 34.6839C512.585 57.7003 500.917 85.866 500.917 118.39C500.917 150.925 512.585 179.087 535.601 202.107C558.617 225.123 586.783 236.791 619.318 236.791Z" fill="#F5A86C"/>
<path d="M411.151 407.034C411.151 432.702 419.315 453.483 435.397 468.788C451.291 483.914 472.312 491.576 497.872 491.576H619.374V275.038C618.328 275.075 617.281 275.094 616.235 275.094C605.689 275.094 595.023 273.365 584.506 269.967C573.732 266.49 565.004 262.642 558.572 258.539C551.041 253.728 544.291 249.381 538.519 245.616C529.15 239.506 524.301 237.455 519.275 237.455C506.505 237.455 494.56 239.615 483.778 243.875C472.965 248.158 463.611 254.046 455.968 261.352C448.659 268.343 442.148 276.834 436.608 286.581C431.268 295.98 426.947 305.776 423.771 315.703C420.695 325.316 418.123 335.821 416.127 346.941C414.158 357.975 412.812 368.423 412.152 377.998C411.488 387.359 411.162 397.125 411.151 407.034V407.034Z" fill="#2682FF"/>
<path d="M246.488 118.39C246.488 150.925 258.156 179.087 281.172 202.107C304.188 225.123 332.354 236.791 364.889 236.791H364.945C397.439 236.779 425.586 225.112 448.602 202.107C471.622 179.087 483.286 150.925 483.286 118.39C483.286 85.866 471.622 57.7003 448.602 34.6839C425.597 11.6751 397.45 0.0112513 364.945 0H364.889C332.365 0 304.2 11.6676 281.172 34.6839C258.156 57.7003 246.488 85.866 246.488 118.39Z" fill="#FFBB85"/>
<path d="M156.722 407.034C156.722 432.702 164.886 453.483 180.968 468.788C196.862 483.914 217.884 491.576 243.443 491.576H480.14C505.699 491.576 526.72 483.914 542.603 468.788C558.696 453.472 566.849 432.694 566.849 407.034C566.849 397.163 566.523 387.397 565.871 378.006C565.207 368.404 563.864 357.956 561.884 346.933C559.889 335.821 557.323 325.316 554.252 315.715C551.064 305.776 546.751 295.972 541.414 286.581C535.871 276.834 529.36 268.343 522.062 261.352C514.411 254.035 505.057 248.158 494.245 243.875C483.47 239.615 471.525 237.455 458.743 237.455C453.729 237.455 448.872 239.506 439.511 245.604C433.653 249.426 426.902 253.776 419.45 258.539C413.014 262.642 404.299 266.49 393.524 269.967C384.054 273.031 374.441 274.741 364.945 275.038C363.899 275.075 362.853 275.094 361.806 275.094C351.26 275.094 340.594 273.365 330.078 269.967C319.303 266.49 310.575 262.642 304.143 258.539C296.613 253.728 289.862 249.381 284.09 245.616C274.721 239.506 269.872 237.455 264.846 237.455C252.076 237.455 240.131 239.615 229.349 243.875C218.536 248.158 209.183 254.046 201.539 261.352C194.23 268.343 187.719 276.834 182.18 286.581C176.839 295.98 172.518 305.776 169.342 315.703C166.266 325.316 163.694 335.821 161.698 346.941C159.729 357.975 158.383 368.423 157.723 377.998C157.059 387.359 156.733 397.125 156.722 407.034V407.034Z" fill="#6AA9FF"/>
<path d="M364.889 236.791H364.945V0H364.889C332.365 0 304.2 11.6676 281.172 34.6839C258.156 57.7003 246.488 85.866 246.488 118.39C246.488 150.925 258.156 179.087 281.172 202.107C304.188 225.123 332.354 236.791 364.889 236.791Z" fill="#F5A86C"/>
<path d="M156.722 407.034C156.722 432.702 164.886 453.483 180.968 468.788C196.862 483.914 217.884 491.576 243.443 491.576H364.945V275.038C363.899 275.075 362.853 275.094 361.806 275.094C351.26 275.094 340.594 273.365 330.078 269.967C319.303 266.49 310.575 262.642 304.143 258.539C296.612 253.728 289.862 249.381 284.09 245.616C274.721 239.506 269.872 237.455 264.846 237.455C252.076 237.455 240.131 239.615 229.349 243.875C218.536 248.158 209.183 254.046 201.539 261.352C194.23 268.343 187.719 276.834 182.179 286.581C176.839 295.98 172.518 305.776 169.342 315.703C166.266 325.316 163.694 335.821 161.698 346.941C159.729 357.975 158.383 368.423 157.723 377.998C157.059 387.359 156.733 397.125 156.722 407.034V407.034Z" fill="#2682FF"/>
<path d="M321.043 203.641C321.043 236.246 309.35 264.467 286.285 287.536C263.22 310.602 234.994 322.294 202.39 322.294H202.334C169.771 322.283 141.564 310.591 118.499 287.536C95.4296 264.467 83.741 236.246 83.741 203.641C83.741 171.049 95.4296 142.823 118.499 119.758C141.553 96.6999 169.76 85.0113 202.334 85H202.39C234.983 85 263.208 96.6924 286.285 119.758C309.35 142.823 321.043 171.049 321.043 203.641Z" fill="#FFBB85"/>
<path d="M411 492.899C411 518.622 402.818 539.447 386.702 554.785C370.774 569.943 349.708 577.621 324.094 577.621H86.8942C61.2807 577.621 40.2149 569.943 24.2981 554.785C8.17077 539.436 0 518.614 0 492.899C0 483.007 0.326981 473.22 0.980943 463.809C1.64618 454.188 2.99169 443.717 4.97612 432.671C6.97559 421.535 9.54634 411.008 12.6245 401.386C15.8191 391.426 20.1413 381.602 25.4895 372.191C31.0444 362.423 37.569 353.914 44.8828 346.908C52.55 339.575 61.9234 333.686 72.7589 329.394C83.5568 325.124 95.5273 322.959 108.336 322.959C113.361 322.959 118.228 325.015 127.609 331.126C133.48 334.956 140.245 339.316 147.713 344.089C154.162 348.201 162.897 352.057 173.695 355.541C183.184 358.612 192.817 360.325 202.334 360.622C203.382 360.66 204.431 360.679 205.479 360.679C216.048 360.679 226.737 358.946 237.275 355.541C248.073 352.057 256.819 348.201 263.265 344.089C270.812 339.267 277.577 334.911 283.361 331.138C292.749 325.015 297.609 322.959 302.645 322.959C315.443 322.959 327.413 325.124 338.219 329.394C349.054 333.686 358.427 339.587 366.087 346.908C373.412 353.914 379.937 362.423 385.488 372.191C390.84 381.609 395.17 391.426 398.353 401.375C401.435 411.008 404.013 421.535 406.013 432.678C407.986 443.736 409.335 454.207 409.997 463.802C410.662 473.183 410.989 482.97 411 492.899V492.899Z" fill="#6AA9FF"/>
<path d="M202.39 322.294H202.334V85H202.39C234.983 85 263.208 96.6924 286.285 119.758C309.35 142.823 321.043 171.049 321.043 203.641C321.043 236.246 309.35 264.467 286.285 287.536C263.22 310.602 234.994 322.294 202.39 322.294Z" fill="#F5A86C"/>
<path d="M411 492.899C411 518.622 402.818 539.447 386.702 554.785C370.774 569.943 349.708 577.621 324.094 577.621H202.334V360.622C203.382 360.66 204.431 360.679 205.479 360.679C216.048 360.679 226.737 358.946 237.275 355.541C248.073 352.057 256.819 348.201 263.265 344.089C270.812 339.267 277.577 334.911 283.361 331.138C292.749 325.015 297.609 322.959 302.645 322.959C315.443 322.959 327.413 325.124 338.219 329.394C349.054 333.686 358.427 339.587 366.087 346.908C373.412 353.914 379.937 362.423 385.488 372.191C390.84 381.609 395.17 391.426 398.353 401.375C401.435 411.008 404.013 421.535 406.013 432.678C407.986 443.736 409.335 454.207 409.997 463.802C410.662 473.183 410.989 482.97 411 492.899V492.899Z" fill="#2682FF"/>
<path d="M888.043 236.641C888.043 269.246 876.35 297.467 853.285 320.536C830.22 343.602 801.994 355.294 769.39 355.294H769.334C736.771 355.283 708.564 343.591 685.499 320.536C662.43 297.467 650.741 269.246 650.741 236.641C650.741 204.049 662.43 175.823 685.499 152.758C708.553 129.7 736.759 118.011 769.334 118H769.39C801.983 118 830.208 129.692 853.285 152.758C876.35 175.823 888.043 204.049 888.043 236.641Z" fill="#FFBB85"/>
<path d="M978 525.899C978 551.622 969.818 572.447 953.702 587.785C937.774 602.943 916.708 610.621 891.094 610.621H653.894C628.281 610.621 607.215 602.943 591.298 587.785C575.171 572.436 567 551.614 567 525.899C567 516.007 567.327 506.22 567.981 496.809C568.646 487.188 569.992 476.717 571.976 465.671C573.976 454.535 576.546 444.008 579.624 434.386C582.819 424.426 587.141 414.602 592.489 405.191C598.044 395.423 604.569 386.914 611.883 379.908C619.55 372.575 628.923 366.686 639.759 362.394C650.557 358.124 662.527 355.959 675.336 355.959C680.361 355.959 685.228 358.015 694.609 364.126C700.48 367.956 707.245 372.316 714.713 377.089C721.162 381.201 729.897 385.057 740.695 388.541C750.184 391.612 759.817 393.325 769.334 393.622C770.382 393.66 771.431 393.679 772.479 393.679C783.048 393.679 793.737 391.946 804.275 388.541C815.073 385.057 823.819 381.201 830.265 377.089C837.812 372.267 844.577 367.911 850.361 364.138C859.749 358.015 864.609 355.959 869.645 355.959C882.443 355.959 894.413 358.124 905.219 362.394C916.054 366.686 925.427 372.587 933.087 379.908C940.412 386.914 946.937 395.423 952.488 405.191C957.84 414.609 962.17 424.426 965.353 434.375C968.435 444.008 971.013 454.535 973.013 465.678C974.986 476.736 976.335 487.207 976.997 496.802C977.662 506.183 977.989 515.97 978 525.899V525.899Z" fill="#6AA9FF"/>
<path d="M769.39 355.294H769.334V118H769.39C801.983 118 830.208 129.692 853.285 152.758C876.35 175.823 888.043 204.049 888.043 236.641C888.043 269.246 876.35 297.467 853.285 320.536C830.22 343.602 801.994 355.294 769.39 355.294Z" fill="#F5A86C"/>
<path d="M978 525.899C978 551.622 969.818 572.447 953.702 587.785C937.774 602.943 916.708 610.621 891.095 610.621H769.334V393.622C770.382 393.66 771.431 393.679 772.479 393.679C783.048 393.679 793.737 391.946 804.275 388.541C815.073 385.057 823.819 381.201 830.265 377.089C837.812 372.267 844.577 367.911 850.361 364.138C859.749 358.015 864.609 355.959 869.645 355.959C882.443 355.959 894.413 358.124 905.219 362.394C916.054 366.686 925.427 372.587 933.087 379.908C940.412 386.914 946.937 395.423 952.488 405.191C957.84 414.609 962.17 424.426 965.353 434.375C968.435 444.008 971.013 454.535 973.013 465.678C974.986 476.736 976.335 487.207 976.997 496.802C977.662 506.183 977.989 515.97 978 525.899V525.899Z" fill="#2682FF"/>
<path d="M488.672 298.309C488.672 332.195 476.52 361.527 452.547 385.504C428.574 409.477 399.238 421.629 365.352 421.629H365.293C331.449 421.617 302.133 409.465 278.16 385.504C254.184 361.527 242.035 332.195 242.035 298.309C242.035 264.434 254.184 235.098 278.16 211.125C302.121 187.16 331.438 175.012 365.293 175H365.352C399.227 175 428.562 187.152 452.547 211.125C476.52 235.098 488.672 264.434 488.672 298.309Z" fill="#FFBB85"/>
<path d="M582.168 598.945C582.168 625.68 573.664 647.324 556.914 663.266C540.359 679.02 518.465 687 491.844 687H245.312C218.691 687 196.797 679.02 180.254 663.266C163.492 647.312 155 625.672 155 598.945C155 588.664 155.34 578.492 156.02 568.711C156.711 558.711 158.109 547.828 160.172 536.348C162.25 524.773 164.922 513.832 168.121 503.832C171.441 493.48 175.934 483.27 181.492 473.488C187.266 463.336 194.047 454.492 201.648 447.211C209.617 439.59 219.359 433.469 230.621 429.008C241.844 424.57 254.285 422.32 267.598 422.32C272.82 422.32 277.879 424.457 287.629 430.809C293.73 434.789 300.762 439.32 308.523 444.281C315.227 448.555 324.305 452.562 335.527 456.184C345.391 459.375 355.402 461.156 365.293 461.465C366.383 461.504 367.473 461.523 368.562 461.523C379.547 461.523 390.656 459.723 401.609 456.184C412.832 452.562 421.922 448.555 428.621 444.281C436.465 439.27 443.496 434.742 449.508 430.82C459.266 424.457 464.316 422.32 469.551 422.32C482.852 422.32 495.293 424.57 506.523 429.008C517.785 433.469 527.527 439.602 535.488 447.211C543.102 454.492 549.883 463.336 555.652 473.488C561.215 483.277 565.715 493.48 569.023 503.82C572.227 513.832 574.906 524.773 576.984 536.355C579.035 547.848 580.438 558.73 581.125 568.703C581.816 578.453 582.156 588.625 582.168 598.945V598.945Z" fill="#6AA9FF"/>
<path d="M365.352 421.629H365.293V175H365.352C399.227 175 428.562 187.152 452.547 211.125C476.52 235.098 488.672 264.434 488.672 298.309C488.672 332.195 476.52 361.527 452.547 385.504C428.574 409.477 399.238 421.629 365.352 421.629Z" fill="#F5A86C"/>
<path d="M582.168 598.945C582.168 625.68 573.664 647.324 556.914 663.266C540.359 679.02 518.465 687 491.844 687H365.293V461.465C366.383 461.504 367.473 461.523 368.562 461.523C379.547 461.523 390.656 459.723 401.609 456.184C412.832 452.562 421.922 448.555 428.621 444.281C436.465 439.27 443.496 434.742 449.508 430.82C459.266 424.457 464.316 422.32 469.551 422.32C482.852 422.32 495.293 424.57 506.523 429.008C517.785 433.469 527.527 439.602 535.488 447.211C543.102 454.492 549.883 463.336 555.652 473.488C561.215 483.277 565.715 493.48 569.023 503.82C572.227 513.832 574.906 524.773 576.984 536.355C579.035 547.848 580.438 558.73 581.125 568.703C581.816 578.453 582.156 588.625 582.168 598.945V598.945Z" fill="#2682FF"/>
<path d="M753.672 298.309C753.672 332.195 741.52 361.527 717.547 385.504C693.574 409.477 664.238 421.629 630.352 421.629H630.293C596.449 421.617 567.133 409.465 543.16 385.504C519.184 361.527 507.035 332.195 507.035 298.309C507.035 264.434 519.184 235.098 543.16 211.125C567.121 187.16 596.438 175.012 630.293 175H630.352C664.227 175 693.562 187.152 717.547 211.125C741.52 235.098 753.672 264.434 753.672 298.309Z" fill="#FFBB85"/>
<path d="M847.168 598.945C847.168 625.68 838.664 647.324 821.914 663.266C805.359 679.02 783.465 687 756.844 687H510.312C483.691 687 461.797 679.02 445.254 663.266C428.492 647.312 420 625.672 420 598.945C420 588.664 420.34 578.492 421.02 568.711C421.711 558.711 423.109 547.828 425.172 536.348C427.25 524.773 429.922 513.832 433.121 503.832C436.441 493.48 440.934 483.27 446.492 473.488C452.266 463.336 459.047 454.492 466.648 447.211C474.617 439.59 484.359 433.469 495.621 429.008C506.844 424.57 519.285 422.32 532.598 422.32C537.82 422.32 542.879 424.457 552.629 430.809C558.73 434.789 565.762 439.32 573.523 444.281C580.227 448.555 589.305 452.562 600.527 456.184C610.391 459.375 620.402 461.156 630.293 461.465C631.383 461.504 632.473 461.523 633.562 461.523C644.547 461.523 655.656 459.723 666.609 456.184C677.832 452.562 686.922 448.555 693.621 444.281C701.465 439.27 708.496 434.742 714.508 430.82C724.266 424.457 729.316 422.32 734.551 422.32C747.852 422.32 760.293 424.57 771.523 429.008C782.785 433.469 792.527 439.602 800.488 447.211C808.102 454.492 814.883 463.336 820.652 473.488C826.215 483.277 830.715 493.48 834.023 503.82C837.227 513.832 839.906 524.773 841.984 536.355C844.035 547.848 845.438 558.73 846.125 568.703C846.816 578.453 847.156 588.625 847.168 598.945V598.945Z" fill="#6AA9FF"/>
<path d="M630.352 421.629H630.293V175H630.352C664.227 175 693.562 187.152 717.547 211.125C741.52 235.098 753.672 264.434 753.672 298.309C753.672 332.195 741.52 361.527 717.547 385.504C693.574 409.477 664.238 421.629 630.352 421.629Z" fill="#F5A86C"/>
<path d="M847.168 598.945C847.168 625.68 838.664 647.324 821.914 663.266C805.359 679.02 783.465 687 756.844 687H630.293V461.465C631.383 461.504 632.473 461.523 633.562 461.523C644.547 461.523 655.656 459.723 666.609 456.184C677.832 452.562 686.922 448.555 693.621 444.281C701.465 439.27 708.496 434.742 714.508 430.82C724.266 424.457 729.316 422.32 734.551 422.32C747.852 422.32 760.293 424.57 771.523 429.008C782.785 433.469 792.527 439.602 800.488 447.211C808.102 454.492 814.883 463.336 820.652 473.488C826.215 483.277 830.715 493.48 834.023 503.82C837.227 513.832 839.906 524.773 841.984 536.355C844.035 547.848 845.438 558.73 846.125 568.703C846.816 578.453 847.156 588.625 847.168 598.945V598.945Z" fill="#2682FF"/>
</svg>
