<svg width="693" height="687" viewBox="0 0 693 687" fill="none" xmlns="http://www.w3.org/2000/svg">
<path d="M345.917 118.39C345.917 150.925 357.585 179.087 380.601 202.107C403.617 225.123 431.783 236.791 464.318 236.791H464.374C496.868 236.779 525.015 225.112 548.031 202.107C571.051 179.087 582.715 150.925 582.715 118.39C582.715 85.866 571.051 57.7003 548.031 34.6839C525.026 11.6751 496.879 0.0112513 464.374 0H464.318C431.794 0 403.629 11.6676 380.601 34.6839C357.585 57.7003 345.917 85.866 345.917 118.39Z" fill="#FFBB85"/>
<path d="M256.151 407.034C256.151 432.702 264.315 453.483 280.397 468.788C296.291 483.914 317.312 491.576 342.872 491.576H579.569C605.128 491.576 626.149 483.914 642.032 468.788C658.125 453.472 666.278 432.694 666.278 407.034C666.278 397.163 665.952 387.397 665.299 378.006C664.636 368.404 663.293 357.956 661.313 346.933C659.318 335.821 656.752 325.316 653.681 315.715C650.493 305.776 646.18 295.972 640.843 286.581C635.3 276.834 628.789 268.343 621.491 261.352C613.84 254.035 604.486 248.158 593.674 243.875C582.899 239.615 570.954 237.455 558.172 237.455C553.158 237.455 548.301 239.506 538.94 245.604C533.082 249.426 526.331 253.776 518.879 258.539C512.443 262.642 503.727 266.49 492.952 269.967C483.483 273.031 473.87 274.741 464.374 275.038C463.328 275.075 462.281 275.094 461.235 275.094C450.689 275.094 440.023 273.365 429.506 269.967C418.731 266.49 410.004 262.642 403.572 258.539C396.041 253.728 389.291 249.381 383.519 245.616C374.15 239.506 369.301 237.455 364.275 237.455C351.505 237.455 339.56 239.615 328.778 243.875C317.965 248.158 308.611 254.046 300.968 261.352C293.659 268.343 287.148 276.834 281.608 286.581C276.268 295.98 271.947 305.776 268.771 315.703C265.695 325.316 263.123 335.821 261.127 346.941C259.158 357.975 257.812 368.423 257.152 377.998C256.488 387.359 256.162 397.125 256.151 407.034V407.034Z" fill="#6AA9FF"/>
<path d="M464.318 236.791H464.374V0H464.318C431.794 0 403.629 11.6676 380.601 34.6839C357.585 57.7003 345.917 85.866 345.917 118.39C345.917 150.925 357.585 179.087 380.601 202.107C403.617 225.123 431.783 236.791 464.318 236.791Z" fill="#F5A86C"/>
<path d="M256.151 407.034C256.151 432.702 264.315 453.483 280.397 468.788C296.291 483.914 317.312 491.576 342.872 491.576H464.374V275.038C463.328 275.075 462.281 275.094 461.235 275.094C450.689 275.094 440.023 273.365 429.506 269.967C418.732 266.49 410.004 262.642 403.572 258.539C396.041 253.728 389.291 249.381 383.519 245.616C374.15 239.506 369.301 237.455 364.275 237.455C351.505 237.455 339.56 239.615 328.778 243.875C317.965 248.158 308.611 254.046 300.968 261.352C293.659 268.343 287.148 276.834 281.608 286.581C276.268 295.98 271.947 305.776 268.771 315.703C265.695 325.316 263.123 335.821 261.127 346.941C259.158 357.975 257.812 368.423 257.152 377.998C256.488 387.359 256.162 397.125 256.151 407.034V407.034Z" fill="#2682FF"/>
<path d="M91.4881 118.39C91.4881 150.925 103.156 179.087 126.172 202.107C149.188 225.123 177.354 236.791 209.889 236.791H209.945C242.439 236.779 270.586 225.112 293.602 202.107C316.622 179.087 328.286 150.925 328.286 118.39C328.286 85.866 316.622 57.7003 293.602 34.6839C270.597 11.6751 242.45 0.0112513 209.945 0H209.889C177.365 0 149.2 11.6676 126.172 34.6839C103.156 57.7003 91.4881 85.866 91.4881 118.39Z" fill="#FFBB85"/>
<path d="M1.72164 407.034C1.72164 432.702 9.88631 453.483 25.9681 468.788C41.8624 483.914 62.8836 491.576 88.4427 491.576H325.14C350.699 491.576 371.72 483.914 387.603 468.788C403.696 453.472 411.849 432.694 411.849 407.034C411.849 397.163 411.523 387.397 410.871 378.006C410.207 368.404 408.864 357.956 406.884 346.933C404.889 335.821 402.323 325.316 399.252 315.715C396.064 305.776 391.751 295.972 386.414 286.581C380.871 276.834 374.36 268.343 367.062 261.352C359.411 254.035 350.057 248.158 339.245 243.875C328.47 239.615 316.525 237.455 303.743 237.455C298.729 237.455 293.872 239.506 284.511 245.604C278.653 249.426 271.902 253.776 264.45 258.539C258.014 262.642 249.299 266.49 238.524 269.967C229.054 273.031 219.441 274.741 209.945 275.038C208.899 275.075 207.853 275.094 206.806 275.094C196.26 275.094 185.594 273.365 175.078 269.967C164.303 266.49 155.575 262.642 149.143 258.539C141.613 253.728 134.862 249.381 129.09 245.616C119.721 239.506 114.872 237.455 109.846 237.455C97.0762 237.455 85.1311 239.615 74.3486 243.875C63.5362 248.158 54.1826 254.046 46.5392 261.352C39.2296 268.343 32.7189 276.834 27.1795 286.581C21.8389 295.98 17.5184 305.776 14.3418 315.703C11.2665 325.316 8.69368 335.821 6.69845 346.941C4.72948 357.975 3.38308 368.423 2.723 377.998C2.05918 387.359 1.73289 397.125 1.72164 407.034V407.034Z" fill="#6AA9FF"/>
<path d="M209.889 236.791H209.945V0H209.889C177.365 0 149.2 11.6676 126.172 34.6839C103.156 57.7003 91.4881 85.866 91.4881 118.39C91.4881 150.925 103.156 179.087 126.172 202.107C149.188 225.123 177.354 236.791 209.889 236.791Z" fill="#F5A86C"/>
<path d="M1.7216 407.034C1.7216 432.702 9.88628 453.483 25.9681 468.788C41.8624 483.914 62.8835 491.576 88.4427 491.576H209.945V275.038C208.899 275.075 207.853 275.094 206.806 275.094C196.26 275.094 185.594 273.365 175.078 269.967C164.303 266.49 155.575 262.642 149.143 258.539C141.612 253.728 134.862 249.381 129.09 245.616C119.721 239.506 114.872 237.455 109.846 237.455C97.0762 237.455 85.1311 239.615 74.3486 243.875C63.5361 248.158 54.1826 254.046 46.5392 261.352C39.2296 268.343 32.7189 276.834 27.1795 286.581C21.8389 295.98 17.5184 305.776 14.3418 315.703C11.2664 325.316 8.69364 335.821 6.69842 346.941C4.72944 357.975 3.38304 368.423 2.72296 377.998C2.05914 387.359 1.73285 397.125 1.7216 407.034V407.034Z" fill="#2682FF"/>
<path d="M333.672 298.309C333.672 332.195 321.52 361.527 297.547 385.504C273.574 409.477 244.238 421.629 210.352 421.629H210.293C176.449 421.617 147.133 409.465 123.16 385.504C99.1836 361.527 87.0352 332.195 87.0352 298.309C87.0352 264.434 99.1836 235.098 123.16 211.125C147.121 187.16 176.438 175.012 210.293 175H210.352C244.227 175 273.562 187.152 297.547 211.125C321.52 235.098 333.672 264.434 333.672 298.309Z" fill="#FFBB85"/>
<path d="M427.168 598.945C427.168 625.68 418.664 647.324 401.914 663.266C385.359 679.02 363.465 687 336.844 687H90.3125C63.6914 687 41.7969 679.02 25.2539 663.266C8.49219 647.312 0 625.672 0 598.945C0 588.664 0.339844 578.492 1.01953 568.711C1.71094 558.711 3.10938 547.828 5.17188 536.348C7.25 524.773 9.92187 513.832 13.1211 503.832C16.4414 493.48 20.9336 483.27 26.4922 473.488C32.2656 463.336 39.0469 454.492 46.6484 447.211C54.6172 439.59 64.3594 433.469 75.6211 429.008C86.8438 424.57 99.2852 422.32 112.598 422.32C117.82 422.32 122.879 424.457 132.629 430.809C138.73 434.789 145.762 439.32 153.523 444.281C160.227 448.555 169.305 452.562 180.527 456.184C190.391 459.375 200.402 461.156 210.293 461.465C211.383 461.504 212.473 461.523 213.562 461.523C224.547 461.523 235.656 459.723 246.609 456.184C257.832 452.562 266.922 448.555 273.621 444.281C281.465 439.27 288.496 434.742 294.508 430.82C304.266 424.457 309.316 422.32 314.551 422.32C327.852 422.32 340.293 424.57 351.523 429.008C362.785 433.469 372.527 439.602 380.488 447.211C388.102 454.492 394.883 463.336 400.652 473.488C406.215 483.277 410.715 493.48 414.023 503.82C417.227 513.832 419.906 524.773 421.984 536.355C424.035 547.848 425.438 558.73 426.125 568.703C426.816 578.453 427.156 588.625 427.168 598.945V598.945Z" fill="#6AA9FF"/>
<path d="M210.352 421.629H210.293V175H210.352C244.227 175 273.562 187.152 297.547 211.125C321.52 235.098 333.672 264.434 333.672 298.309C333.672 332.195 321.52 361.527 297.547 385.504C273.574 409.477 244.238 421.629 210.352 421.629Z" fill="#F5A86C"/>
<path d="M427.168 598.945C427.168 625.68 418.664 647.324 401.914 663.266C385.359 679.02 363.465 687 336.844 687H210.293V461.465C211.383 461.504 212.473 461.523 213.562 461.523C224.547 461.523 235.656 459.723 246.609 456.184C257.832 452.562 266.922 448.555 273.621 444.281C281.465 439.27 288.496 434.742 294.508 430.82C304.266 424.457 309.316 422.32 314.551 422.32C327.852 422.32 340.293 424.57 351.523 429.008C362.785 433.469 372.527 439.602 380.488 447.211C388.102 454.492 394.883 463.336 400.652 473.488C406.215 483.277 410.715 493.48 414.023 503.82C417.227 513.832 419.906 524.773 421.984 536.355C424.035 547.848 425.438 558.73 426.125 568.703C426.816 578.453 427.156 588.625 427.168 598.945V598.945Z" fill="#2682FF"/>
<path d="M598.672 298.309C598.672 332.195 586.52 361.527 562.547 385.504C538.574 409.477 509.238 421.629 475.352 421.629H475.293C441.449 421.617 412.133 409.465 388.16 385.504C364.184 361.527 352.035 332.195 352.035 298.309C352.035 264.434 364.184 235.098 388.16 211.125C412.121 187.16 441.438 175.012 475.293 175H475.352C509.227 175 538.562 187.152 562.547 211.125C586.52 235.098 598.672 264.434 598.672 298.309Z" fill="#FFBB85"/>
<path d="M692.168 598.945C692.168 625.68 683.664 647.324 666.914 663.266C650.359 679.02 628.465 687 601.844 687H355.312C328.691 687 306.797 679.02 290.254 663.266C273.492 647.312 265 625.672 265 598.945C265 588.664 265.34 578.492 266.02 568.711C266.711 558.711 268.109 547.828 270.172 536.348C272.25 524.773 274.922 513.832 278.121 503.832C281.441 493.48 285.934 483.27 291.492 473.488C297.266 463.336 304.047 454.492 311.648 447.211C319.617 439.59 329.359 433.469 340.621 429.008C351.844 424.57 364.285 422.32 377.598 422.32C382.82 422.32 387.879 424.457 397.629 430.809C403.73 434.789 410.762 439.32 418.523 444.281C425.227 448.555 434.305 452.562 445.527 456.184C455.391 459.375 465.402 461.156 475.293 461.465C476.383 461.504 477.473 461.523 478.562 461.523C489.547 461.523 500.656 459.723 511.609 456.184C522.832 452.562 531.922 448.555 538.621 444.281C546.465 439.27 553.496 434.742 559.508 430.82C569.266 424.457 574.316 422.32 579.551 422.32C592.852 422.32 605.293 424.57 616.523 429.008C627.785 433.469 637.527 439.602 645.488 447.211C653.102 454.492 659.883 463.336 665.652 473.488C671.215 483.277 675.715 493.48 679.023 503.82C682.227 513.832 684.906 524.773 686.984 536.355C689.035 547.848 690.438 558.73 691.125 568.703C691.816 578.453 692.156 588.625 692.168 598.945V598.945Z" fill="#6AA9FF"/>
<path d="M475.352 421.629H475.293V175H475.352C509.227 175 538.562 187.152 562.547 211.125C586.52 235.098 598.672 264.434 598.672 298.309C598.672 332.195 586.52 361.527 562.547 385.504C538.574 409.477 509.238 421.629 475.352 421.629Z" fill="#F5A86C"/>
<path d="M692.168 598.945C692.168 625.68 683.664 647.324 666.914 663.266C650.359 679.02 628.465 687 601.844 687H475.293V461.465C476.383 461.504 477.473 461.523 478.562 461.523C489.547 461.523 500.656 459.723 511.609 456.184C522.832 452.562 531.922 448.555 538.621 444.281C546.465 439.27 553.496 434.742 559.508 430.82C569.266 424.457 574.316 422.32 579.551 422.32C592.852 422.32 605.293 424.57 616.523 429.008C627.785 433.469 637.527 439.602 645.488 447.211C653.102 454.492 659.883 463.336 665.652 473.488C671.215 483.277 675.715 493.48 679.023 503.82C682.227 513.832 684.906 524.773 686.984 536.355C689.035 547.848 690.438 558.73 691.125 568.703C691.816 578.453 692.156 588.625 692.168 598.945V598.945Z" fill="#2682FF"/>
</svg>
