<svg width="721" height="512" viewBox="0 0 721 512" fill="none" xmlns="http://www.w3.org/2000/svg">
<path d="M626.672 123.309C626.672 157.195 614.52 186.527 590.547 210.504C566.574 234.477 537.238 246.629 503.352 246.629H503.293C469.449 246.617 440.133 234.465 416.16 210.504C392.184 186.527 380.035 157.195 380.035 123.309C380.035 89.4336 392.184 60.0977 416.16 36.125C440.121 12.1602 469.438 0.0117188 503.293 0H503.352C537.227 0 566.562 12.1523 590.547 36.125C614.52 60.0977 626.672 89.4336 626.672 123.309Z" fill="#FFBB85"/>
<path d="M720.168 423.945C720.168 450.68 711.664 472.324 694.914 488.266C678.359 504.02 656.465 512 629.844 512H383.312C356.691 512 334.797 504.02 318.254 488.266C301.492 472.312 293 450.672 293 423.945C293 413.664 293.34 403.492 294.02 393.711C294.711 383.711 296.109 372.828 298.172 361.348C300.25 349.773 302.922 338.832 306.121 328.832C309.441 318.48 313.934 308.27 319.492 298.488C325.266 288.336 332.047 279.492 339.648 272.211C347.617 264.59 357.359 258.469 368.621 254.008C379.844 249.57 392.285 247.32 405.598 247.32C410.82 247.32 415.879 249.457 425.629 255.809C431.73 259.789 438.762 264.32 446.523 269.281C453.227 273.555 462.305 277.562 473.527 281.184C483.391 284.375 493.402 286.156 503.293 286.465C504.383 286.504 505.473 286.523 506.562 286.523C517.547 286.523 528.656 284.723 539.609 281.184C550.832 277.562 559.922 273.555 566.621 269.281C574.465 264.27 581.496 259.742 587.508 255.82C597.266 249.457 602.316 247.32 607.551 247.32C620.852 247.32 633.293 249.57 644.523 254.008C655.785 258.469 665.527 264.602 673.488 272.211C681.102 279.492 687.883 288.336 693.652 298.488C699.215 308.277 703.715 318.48 707.023 328.82C710.227 338.832 712.906 349.773 714.984 361.355C717.035 372.848 718.438 383.73 719.125 393.703C719.816 403.453 720.156 413.625 720.168 423.945V423.945Z" fill="#6AA9FF"/>
<path d="M503.352 246.629H503.293V0H503.352C537.227 0 566.562 12.1523 590.547 36.125C614.52 60.0977 626.672 89.4336 626.672 123.309C626.672 157.195 614.52 186.527 590.547 210.504C566.574 234.477 537.238 246.629 503.352 246.629Z" fill="#F5A86C"/>
<path d="M720.168 423.945C720.168 450.68 711.664 472.324 694.914 488.266C678.359 504.02 656.465 512 629.844 512H503.293V286.465C504.383 286.504 505.473 286.523 506.562 286.523C517.547 286.523 528.656 284.723 539.609 281.184C550.832 277.562 559.922 273.555 566.621 269.281C574.465 264.27 581.496 259.742 587.508 255.82C597.266 249.457 602.316 247.32 607.551 247.32C620.852 247.32 633.293 249.57 644.523 254.008C655.785 258.469 665.527 264.602 673.488 272.211C681.102 279.492 687.883 288.336 693.652 298.488C699.215 308.277 703.715 318.48 707.023 328.82C710.227 338.832 712.906 349.773 714.984 361.355C717.035 372.848 718.438 383.73 719.125 393.703C719.816 403.453 720.156 413.625 720.168 423.945V423.945Z" fill="#2682FF"/>
<path d="M333.672 123.309C333.672 157.195 321.52 186.527 297.547 210.504C273.574 234.477 244.238 246.629 210.352 246.629H210.293C176.449 246.617 147.133 234.465 123.16 210.504C99.1836 186.527 87.0352 157.195 87.0352 123.309C87.0352 89.4336 99.1836 60.0977 123.16 36.125C147.121 12.1602 176.438 0.0117188 210.293 0H210.352C244.227 0 273.562 12.1523 297.547 36.125C321.52 60.0977 333.672 89.4336 333.672 123.309Z" fill="#FFBB85"/>
<path d="M427.168 423.945C427.168 450.68 418.664 472.324 401.914 488.266C385.359 504.02 363.465 512 336.844 512H90.3125C63.6914 512 41.7969 504.02 25.2539 488.266C8.49219 472.312 0 450.672 0 423.945C0 413.664 0.339844 403.492 1.01953 393.711C1.71094 383.711 3.10938 372.828 5.17188 361.348C7.25 349.773 9.92187 338.832 13.1211 328.832C16.4414 318.48 20.9336 308.27 26.4922 298.488C32.2656 288.336 39.0469 279.492 46.6484 272.211C54.6172 264.59 64.3594 258.469 75.6211 254.008C86.8438 249.57 99.2852 247.32 112.598 247.32C117.82 247.32 122.879 249.457 132.629 255.809C138.73 259.789 145.762 264.32 153.523 269.281C160.227 273.555 169.305 277.562 180.527 281.184C190.391 284.375 200.402 286.156 210.293 286.465C211.383 286.504 212.473 286.523 213.562 286.523C224.547 286.523 235.656 284.723 246.609 281.184C257.832 277.562 266.922 273.555 273.621 269.281C281.465 264.27 288.496 259.742 294.508 255.82C304.266 249.457 309.316 247.32 314.551 247.32C327.852 247.32 340.293 249.57 351.523 254.008C362.785 258.469 372.527 264.602 380.488 272.211C388.102 279.492 394.883 288.336 400.652 298.488C406.215 308.277 410.715 318.48 414.023 328.82C417.227 338.832 419.906 349.773 421.984 361.355C424.035 372.848 425.438 383.73 426.125 393.703C426.816 403.453 427.156 413.625 427.168 423.945V423.945Z" fill="#6AA9FF"/>
<path d="M210.352 246.629H210.293V0H210.352C244.227 0 273.562 12.1523 297.547 36.125C321.52 60.0977 333.672 89.4336 333.672 123.309C333.672 157.195 321.52 186.527 297.547 210.504C273.574 234.477 244.238 246.629 210.352 246.629Z" fill="#F5A86C"/>
<path d="M427.168 423.945C427.168 450.68 418.664 472.324 401.914 488.266C385.359 504.02 363.465 512 336.844 512H210.293V286.465C211.383 286.504 212.473 286.523 213.562 286.523C224.547 286.523 235.656 284.723 246.609 281.184C257.832 277.562 266.922 273.555 273.621 269.281C281.465 264.27 288.496 259.742 294.508 255.82C304.266 249.457 309.316 247.32 314.551 247.32C327.852 247.32 340.293 249.57 351.523 254.008C362.785 258.469 372.527 264.602 380.488 272.211C388.102 279.492 394.883 288.336 400.652 298.488C406.215 308.277 410.715 318.48 414.023 328.82C417.227 338.832 419.906 349.773 421.984 361.355C424.035 372.848 425.438 383.73 426.125 393.703C426.816 403.453 427.156 413.625 427.168 423.945V423.945Z" fill="#2682FF"/>
</svg>
