<svg width="512" height="512" viewBox="0 0 512 512" fill="none" xmlns="http://www.w3.org/2000/svg">
<path d="M256 512C397.385 512 512 397.385 512 256C512 114.615 397.385 0 256 0C114.615 0 0 114.615 0 256C0 397.385 114.615 512 256 512Z" fill="#ECEFF1"/>
<path d="M442.273 405.696C431.137 396.896 417.569 390.56 402.849 387.488L332.673 373.408C325.313 372 320.001 365.408 320.001 357.728V341.632C324.513 335.296 328.769 326.88 333.217 318.08C336.673 311.264 341.889 300.992 344.481 298.336C358.689 284.064 372.417 268.032 376.673 247.36C380.641 227.968 376.737 217.792 372.161 209.6C372.161 189.152 371.521 163.552 366.689 144.928C366.113 119.712 361.537 105.536 350.017 93.12C341.889 84.32 329.921 82.272 320.289 80.64C316.513 80 311.297 79.104 309.377 78.08C292.321 68.864 275.457 64.352 255.329 64C213.185 65.728 161.377 92.544 144.033 140.352C138.657 154.912 139.201 178.816 139.649 198.016L139.233 209.568C135.105 217.632 131.041 227.872 135.041 247.328C139.265 268.032 152.993 284.096 167.457 298.56C169.825 300.992 175.169 311.36 178.689 318.208C183.201 326.976 187.489 335.36 192.001 341.664V357.76C192.001 365.408 186.657 372 179.265 373.44L109.025 387.52C94.4006 390.624 80.8326 396.896 69.7286 405.696C66.2726 408.48 64.0966 412.544 63.7446 416.96C63.3926 421.376 64.8646 425.696 67.8406 428.992C115.649 481.728 184.225 512 256.001 512C327.777 512 396.385 481.76 444.161 428.992C447.137 425.696 448.641 421.344 448.257 416.928C447.905 412.512 445.729 408.448 442.273 405.696Z" fill="#075E54"/>
</svg>
