<svg width="512" height="512" viewBox="0 0 512 512" fill="none" xmlns="http://www.w3.org/2000/svg">
<path d="M256 0C114.844 0 0 114.844 0 256C0 397.156 114.844 512 256 512C397.156 512 512 397.156 512 256C512 114.844 397.156 0 256 0ZM256 490.667C126.604 490.667 21.333 385.396 21.333 256C21.333 126.604 126.604 21.333 256 21.333C385.396 21.333 490.667 126.604 490.667 256C490.667 385.396 385.396 490.667 256 490.667Z" fill="#74787C"/>
<path d="M393.385 299.115C387.604 297.73 381.895 301.292 380.541 307.021C366.791 364.906 315.583 405.334 255.999 405.334C196.343 405.334 145.114 364.844 131.426 306.886C130.061 301.136 124.28 297.646 118.593 298.948C112.853 300.302 109.301 306.052 110.655 311.781C126.634 379.427 186.405 426.666 255.999 426.666C325.509 426.666 385.259 379.499 401.291 311.958C402.656 306.219 399.115 300.469 393.385 299.115Z" fill="#74787C"/>
<path d="M170.667 213.333C182.449 213.333 192 203.782 192 192C192 180.218 182.449 170.667 170.667 170.667C158.885 170.667 149.334 180.218 149.334 192C149.334 203.782 158.885 213.333 170.667 213.333Z" fill="#74787C"/>
<path d="M341.333 213.333C353.115 213.333 362.666 203.782 362.666 192C362.666 180.218 353.115 170.667 341.333 170.667C329.551 170.667 320 180.218 320 192C320 203.782 329.551 213.333 341.333 213.333Z" fill="#74787C"/>
</svg>
